<?xml version="1.0" encoding="utf-8"?>
<!-- Generator: Adobe Illustrator 26.0.2, SVG Export Plug-In . SVG Version: 6.00 Build 0)  -->
<svg version="1.1" id="Layer_1" xmlns="http://www.w3.org/2000/svg" xmlns:xlink="http://www.w3.org/1999/xlink" x="0px" y="0px"
	 viewBox="0 0 80 81" style="enable-background:new 0 0 80 81;" xml:space="preserve">
<style type="text/css">
	.st0{fill-rule:evenodd;clip-rule:evenodd;fill:#FFFFFF;}
	.st1{fill-rule:evenodd;clip-rule:evenodd;fill:#EC5242;}
</style>
<path class="st0" d="M10,51.5c-0.3,0-0.6-0.1-0.9-0.2C8.4,51,8,50.3,8,49.5V38H6.1C2.7,38,0,35.3,0,31.9V20.6c0-1.1,0.9-2,2-2
	s2,0.9,2,2v11.3C4,33.1,5,34,6.1,34H10c1.1,0,2,0.9,2,2v9.4l14.3-11c0.3-0.3,0.8-0.4,1.2-0.4h22.4c1.2,0,2.2-1,2.2-2.2V7.2
	C52,6,51,5,49.9,5H6.2C5,5,4,6,4,7.2l0,0V11c0,1.1-0.9,2-2,2s-2-0.9-2-2V7.2C0,3.8,2.7,1,6.1,1h43.7C53.2,1,56,3.8,56,7.2v24.7
	c0,3.4-2.7,6.2-6.1,6.2H28.2l-17,13C10.8,51.3,10.4,51.5,10,51.5z M72,81c-0.4,0-0.9-0.1-1.2-0.4l-12.7-9.7H41.9
	c-2.8,0-5.1-2.3-5.1-5.2v-9.5c0-1.1,0.9-2,2-2s2,0.9,2,2v9.5c0,0.6,0.5,1.1,1.1,1.1h16.9c0.4,0,0.9,0.1,1.2,0.4l10,7.7v-6.1
	c0-1.1,0.9-2,2-2l0,0h2.9c0.6,0,1.1-0.5,1.1-1.1V47c0-0.6-0.5-1.1-1.1-1.1h-33c-0.6,0-1.1,0.5-1.1,1.1c0,1.1-0.9,2-2,2s-2-0.9-2-2
	c0-2.8,2.3-5.1,5.1-5.2h33c2.8,0,5.1,2.3,5.1,5.2v18.6c0,2.8-2.3,5.1-5.1,5.2H74V79C74,80.1,73.1,81,72,81L72,81L72,81z M17,22.2h-3
	c-1.1,0-2-0.9-2-2.1c0-1.1,0.9-1.9,2-2h3c1.1,0,2,0.9,2,2.1C18.9,21.3,18.1,22.2,17,22.2z M29.5,22.2h-3c-1.1,0-2-0.9-2-2.1
	c0-1.1,0.9-1.9,2-2h3c1.1,0,2,0.9,2,2.1C31.4,21.3,30.6,22.2,29.5,22.2z M42,22.2h-3c-1.1,0-2-0.9-2-2.1c0-1.1,0.9-1.9,2-2h3
	c1.1,0,2,0.9,2,2.1C43.9,21.3,43.1,22.2,42,22.2z M53,58.4h-3c-1.1,0-2-0.9-2-2.1c0-1.1,0.9-1.9,2-2h3c1.1,0,2,0.9,2,2
	S54.1,58.4,53,58.4L53,58.4z M66,58.4h-3c-1.1,0-2-0.9-2-2.1c0-1.1,0.9-1.9,2-2h3c1.1,0,2,0.9,2,2S67.1,58.4,66,58.4L66,58.4z"/>
<g>
	<path class="st1" d="M53,58.4h-3c-1.1,0-2-0.9-2-2l0,0c0-1.1,0.9-2,2-2h3c1.1,0,2,0.9,2,2l0,0C55,57.5,54.1,58.4,53,58.4z"/>
	<path class="st1" d="M66,58.4h-3c-1.1,0-2-0.9-2-2l0,0c0-1.1,0.9-2,2-2h3c1.1,0,2,0.9,2,2l0,0C68,57.5,67.1,58.4,66,58.4z"/>
</g>
<g>
	<path class="st1" d="M17.5,22.2h-4c-1.1,0-2-0.9-2-2l0,0c0-1.1,0.9-2,2-2h4c1.1,0,2,0.9,2,2l0,0C19.5,21.3,18.6,22.2,17.5,22.2z"/>
	<path class="st1" d="M29.5,22.2h-3c-1.1,0-2-0.9-2-2l0,0c0-1.1,0.9-2,2-2h3c1.1,0,2,0.9,2,2l0,0C31.5,21.3,30.6,22.2,29.5,22.2z"/>
	<path class="st1" d="M42,22.2h-3c-1.1,0-2-0.9-2-2l0,0c0-1.1,0.9-2,2-2h3c1.1,0,2,0.9,2,2l0,0C44,21.3,43.1,22.2,42,22.2z"/>
</g>
</svg>
