<svg xmlns="http://www.w3.org/2000/svg" width="32" height="32" viewBox="0 0 32 32"><g transform="translate(0 -1020.362)"><path style="line-height:normal;text-indent:0;text-align:start;text-decoration-line:none;text-decoration-style:solid;text-decoration-color:#000;text-transform:none;block-progression:tb;isolation:auto;mix-blend-mode:normal" fill="#2b4255" fill-rule="evenodd" d="M 11.566406 8.6601562 L 9.8476562 10.132812 C 10.046366 10.449792 10.242874 10.774443 10.388672 10.986328 L 12.216797 9.4199219 L 11.566406 8.6601562 z M 9.0820312 10.789062 L 5.9160156 13.501953 L 6.5664062 14.261719 L 9.6308594 11.634766 C 9.4767209 11.414816 9.2869885 11.113642 9.0820312 10.789062 z " color="#000" font-family="sans-serif" font-weight="400" overflow="visible" transform="translate(0 1020.362)"/><path style="line-height:normal;text-indent:0;text-align:start;text-decoration-line:none;text-decoration-style:solid;text-decoration-color:#000;text-transform:none;block-progression:tb;isolation:auto;mix-blend-mode:normal" fill="#2b4255" fill-rule="evenodd" d="M6.7226562 1037.3359l-.9628906.2676 2.2421875 8.0684.9648438-.2676-2.2441407-8.0684zM7.1328125 1035.9004l-.1679687.9863 6.9804682 1.1875.167969-.9863-6.9804685-1.1875zM18.978516 1045.9609l-7.681641.3028.04102 1 7.679687-.3047-.03906-.9981zM13.710938 1039.002l-3.8964849 5.8886.8339849.5508 3.896484-5.8867-.833984-.5527zM18.466797 1028.3066l-.646485.7618 6.53125 5.5546.646485-.7617-6.53125-5.5547z" color="#000" font-family="sans-serif" font-weight="400" overflow="visible"/><path style="line-height:normal;text-indent:0;text-align:start;text-decoration-line:none;text-decoration-style:solid;text-decoration-color:#000;text-transform:none;block-progression:tb;isolation:auto;mix-blend-mode:normal" fill="#2b4255" fill-rule="evenodd" d="M 24.726562 17.181641 L 22.998047 20.886719 L 23.867188 21.388672 L 25.632812 17.603516 L 24.726562 17.181641 z M 22.574219 21.796875 L 21.271484 24.587891 L 22.177734 25.009766 L 23.443359 22.296875 L 22.574219 21.796875 z " color="#000" font-family="sans-serif" font-weight="400" overflow="visible" transform="translate(0 1020.362)"/><path style="line-height:normal;text-indent:0;text-align:start;text-decoration-line:none;text-decoration-style:solid;text-decoration-color:#000;text-transform:none;block-progression:tb;isolation:auto;mix-blend-mode:normal" fill="#2b4255" fill-rule="evenodd" d="M23.783203 1035.9004l-6.980469 1.1875.167969.9863 6.980469-1.1875-.167969-.9863zM17.287109 1038.9883l-.925781.3808 2.775391 6.7442.925781-.3809-2.775391-6.7441z" color="#000" font-family="sans-serif" font-weight="400" overflow="visible"/><path style="line-height:normal;text-indent:0;text-align:start;text-decoration-line:none;text-decoration-style:solid;text-decoration-color:#000;text-transform:none;block-progression:tb;isolation:auto;mix-blend-mode:normal" fill="#f05542" d="M14.865234 1023.3613c-2.134924 0-3.876989 1.7408-3.876953 3.875.000027 2.1342 1.742073 3.875 3.876953 3.875 2.13488 0 3.874974-1.7408 3.875-3.875.000037-2.1342-1.740075-3.875-3.875-3.875zm0 1c1.594751 0 2.875028 1.2815 2.875 2.875-.00002 1.5935-1.280283 2.875-2.875 2.875-1.594717 0-2.876933-1.2815-2.876953-2.875-.000027-1.5935 1.282202-2.875 2.876953-2.875zM5.4335938 1033.3398c-1.3846601 0-2.5175769 1.1313-2.5175782 2.5157.0000013 1.3843 1.1329181 2.5175 2.5175782 2.5175 1.3846599 0 2.5175768-1.1332 2.5175781-2.5175-.0000013-1.3844-1.1329182-2.5157-2.5175781-2.5157zm0 1c.8444929 0 1.5175773.672 1.5175781 1.5157-8e-7.8436-.6730852 1.5175-1.5175781 1.5175-.8444931 0-1.5175774-.6739-1.5175782-1.5175 8e-7-.8437.6730851-1.5157 1.5175782-1.5157zM9.6953125 1044.6348c-1.161697 0-2.1151759.9517-2.1152344 2.1132-.0000134 1.1616.9534727 2.1133 2.1152344 2.1133 1.1617615 0 2.1152475-.9517 2.1152345-2.1133-.000059-1.1615-.953537-2.1132-2.1152345-2.1132zm0 1c.6215625 0 1.1152035.4924 1.1152345 1.1132.000007.6209-.493658 1.1133-1.1152345 1.1133-.6215761 0-1.1152416-.4924-1.1152344-1.1133.0000313-.6208.4936718-1.1132 1.1152344-1.1132zM15.605469 1035.5098c-1.264407 0-2.300758 1.033-2.300781 2.2968.000023 1.2639 1.036374 2.2989 2.300781 2.2989 1.264407 0 2.300758-1.035 2.300781-2.2989-.000023-1.2638-1.036374-2.2968-2.300781-2.2968zm0 1c.724646 0 1.300768.5741 1.300781 1.2968-.000013.7228-.576135 1.2989-1.300781 1.2989-.724646 0-1.300768-.5761-1.300781-1.2989.000013-.7227.576135-1.2968 1.300781-1.2968zM25.482422 1033.3398c1.38466 0 2.517577 1.1313 2.517578 2.5157-.000001 1.3843-1.132918 2.5175-2.517578 2.5175-1.38466 0-2.51953-1.1332-2.519531-2.5175.000001-1.3844 1.134871-2.5157 2.519531-2.5157zm0 1c-.844493 0-1.519531.672-1.519531 1.5157 0 .8436.675038 1.5175 1.519531 1.5175.844493 0 1.517577-.6739 1.517578-1.5175-.000001-.8437-.673085-1.5157-1.517578-1.5157zM20.884766 1044.6348c1.161704 0 2.115175.9517 2.115234 2.1132.000013 1.1616-.95348 2.1133-2.115234 2.1133-1.161755 0-2.113295-.9517-2.113282-2.1133.000059-1.1615.951577-2.1132 2.113282-2.1132zm0 1c-.621555 0-1.11325.4924-1.113282 1.1132-.000007.6209.491698 1.1133 1.113282 1.1133.621583 0 1.115241-.4924 1.115234-1.1133-.000031-.6208-.493679-1.1132-1.115234-1.1132z" color="#000" font-family="sans-serif" font-weight="400" overflow="visible"/></g></svg>