<?xml version="1.0" encoding="utf-8"?>
<!-- Generator: Adobe Illustrator 26.0.2, SVG Export Plug-In . SVG Version: 6.00 Build 0)  -->
<svg version="1.1" id="Layer_1" xmlns="http://www.w3.org/2000/svg" xmlns:xlink="http://www.w3.org/1999/xlink" x="0px" y="0px"
	 viewBox="0 0 64 64" style="enable-background:new 0 0 64 64;" xml:space="preserve">
<style type="text/css">
	.st0{fill:#EC5242;}
	.st1{fill:#FFFFFF;}
</style>
<g>
	<path class="st0" d="M48.1,11.3c0.2,0.5,0.8,0.7,1.3,0.5c0.5-0.2,0.7-0.8,0.5-1.3c0-0.1-0.1-0.2-0.2-0.3c-0.4-0.4-1-0.4-1.4,0
		C48,10.5,47.9,10.9,48.1,11.3z M52.1,11.3c0.2,0.5,0.8,0.7,1.3,0.5c0.5-0.2,0.7-0.8,0.5-1.3c0-0.1-0.1-0.2-0.2-0.3
		c-0.4-0.4-1-0.4-1.4,0C52,10.5,51.9,10.9,52.1,11.3z M56.3,10.2c-0.4,0.4-0.4,1,0,1.4c0.4,0.4,1,0.4,1.4,0c0.4-0.4,0.4-1,0-1.4
		C57.3,9.9,56.7,9.9,56.3,10.2z M57,13.9H29c-0.6,0-1,0.4-1,1v19c0,0.6,0.4,1,1,1h28c0.6,0,1-0.4,1-1v-19C58,14.4,57.6,13.9,57,13.9
		z M56,32.9H30v-17h26V32.9z M29,39.9h14c0.6,0,1-0.4,1-1s-0.4-1-1-1H29c-0.6,0-1,0.5-1,1C28,39.5,28.5,39.9,29,39.9z M53,41.9H29
		c-0.6,0-1,0.5-1,1c0,0.5,0.4,1,1,1h24c0.6,0,1-0.5,1-1C54,42.4,53.5,42,53,41.9z"/>
	<path class="st1" d="M59,5.9H5c-1.7,0-3,1.3-3,3v37c0,1.7,1.3,3,3,3h1.6c-0.4,2.7-0.4,5.4-0.1,8.1c0.1,0.5,0.5,0.8,0.9,0.9
		c1.2,0.1,2.3,0.1,3.4,0.1c12.8,0,18.1-5.2,18.4-5.4c0.2-0.2,0.3-0.6,0.3-0.9c-0.2-0.9-0.6-1.9-1-2.8H59c1.7,0,3-1.3,3-3v-37
		C62,7.3,60.7,5.9,59,5.9z M8.4,56c-0.2-2.6-0.6-10.7,3.6-14.1c1.1,1.9,3.6,2.6,5.5,1.4c0.5-0.3,0.9-0.7,1.3-1.2
		c1.8,0.9,6.9,3.7,8.6,9.4C25.9,52.8,20,56.6,8.4,56z M19.1,23.7c-3-1-6,1.4-7,3.7c-1.9-0.9-4.1-0.1-5,1.8c0,0,0,0.1,0,0.1
		c-0.9-3.5,4.9-7.6,5-7.6c0.1-0.1,0.2-0.2,0.3-0.3c3.1-5,5.7-5.7,7-5.7c0.2,0,0.5,0,0.7,0.1C22.5,17.8,20.1,22.1,19.1,23.7z
		 M10.3,33.2c-0.7-0.9-2.1-2.5-1-3.6c0.6-0.7,1.7-0.8,2.4-0.2c0.1,0,0.1,0.1,0.2,0.2c0.4,0.4,1,0.4,1.4,0c0.1-0.1,0.2-0.2,0.2-0.4
		c0.3-1.1,2.3-4.8,5.4-3.5C25.3,39.4,18.3,39.3,10.3,33.2z M17.5,39c0,0.5,0,1-0.1,1.6c-0.4,1-1.5,1.6-2.6,1.2
		c-0.7-0.3-1.2-0.9-1.3-1.6c0,0,0-2.5,0-2.6C14.8,38.3,16.1,38.8,17.5,39L17.5,39z M60,45.9c0,0.6-0.4,1-1,1H27.4
		c-2-2.9-4.7-5.2-7.9-6.7c0-0.4,0-0.8,0-1.1c6.2-1.4,3.6-9.2,1.2-14.2c1.2-1.9,4.5-8,0.3-10.9c-0.2-0.1-4.8-2.3-10.2,6.2
		c-4.1,2.6-9.7,9.4-1.9,14.5c0.8,0.6,1.7,1.2,2.6,1.8v3.3c-2.4,1.7-4,4.2-4.5,7.1H5c-0.6,0-1-0.4-1-1v-37c0-0.6,0.4-1,1-1h54
		c0.6,0,1,0.4,1,1V45.9z"/>
	<path class="st1" d="M39.7,29.7c0.5,0.3,1,0.3,1.5,0l6.6-3.7c0.7-0.4,1-1.3,0.6-2.1c-0.1-0.2-0.3-0.4-0.6-0.6l-6.6-3.7
		c-0.7-0.4-1.6-0.2-2.1,0.6c-0.1,0.2-0.2,0.5-0.2,0.7v7.4C39,29,39.3,29.5,39.7,29.7z M41,21.9l5.1,2.8L41,27.6V21.9z"/>
</g>
</svg>
