<?xml version="1.0" encoding="utf-8"?>
<!-- Generator: Adobe Illustrator 26.0.2, SVG Export Plug-In . SVG Version: 6.00 Build 0)  -->
<svg version="1.1" id="Layer_1" xmlns="http://www.w3.org/2000/svg" xmlns:xlink="http://www.w3.org/1999/xlink" x="0px" y="0px"
	 viewBox="0 0 128 128" style="enable-background:new 0 0 128 128;" xml:space="preserve">
<style type="text/css">
	.st0{fill:#FFFFFF;}
	.st1{fill:#EC5242;}
</style>
<path class="st0" d="M10,12h24c1.1,0,2-0.9,2-2s-0.9-2-2-2H10c-1.1,0-2,0.9-2,2S8.9,12,10,12z M10,20h62c1.1,0,2-0.9,2-2s-0.9-2-2-2
	H10c-1.1,0-2,0.9-2,2S8.9,20,10,20z M82.1,64c0,0.7,0,1.3,0,2s0,1.3,0,2h5c0-0.3-0.1-0.7-0.1-1v-3H82.1z"/>
<path class="st0" d="M122,0H6C2.7,0,0,2.7,0,6v56c0,3.3,2.7,6,6,6h22v-4H6c-1.1,0-2-0.9-2-2V6c0-1.1,0.9-2,2-2h116c1.1,0,2,0.9,2,2
	v56c0,1.1-0.9,2-2,2h-0.2c1.3,0.7,2.4,1.8,3.2,3.2c1.9-1.1,3-3,3-5.2V6C128,2.7,125.3,0,122,0z"/>
<path class="st1" d="M40,63v8h4v-8c0-1.1-0.9-2-2-2S40,61.9,40,63z M10,28h34.2c0.9-1.5,2-2.9,3.3-4H10c-1.1,0-2,0.9-2,2
	S8.9,28,10,28z M71.8,28h9.4c1.2-1.5,2.1-2.5,2.1-2.5c0.5-0.5,1-1,1.6-1.5H68.5C69.9,25.1,71,26.5,71.8,28z M96.8,32
	c0-1.7-0.8-3.4-2.1-4.5c-2.5-2.1-6.2-1.8-8.4,0.7L73.3,44h-1.5c-0.9,1.5-2,2.9-3.3,4h5.7c0.6,0,1.2-0.3,1.5-0.7l13.6-16.6
	c0.7-0.8,1.9-0.9,2.7-0.2c0.4,0.4,0.7,0.9,0.7,1.5c0,0.4-0.2,0.8-0.4,1.1c0,0,0,0.1-0.1,0.1L74.5,56.1c-0.3,0.4-0.4,0.8-0.4,1.2l0,0
	c0,2.2,0,5.3,0,8.7c0,1.6,0,3.3,0,5h4c0-1.7,0-3.4,0-5c0-3.1,0-5.9,0-8l17.4-22.3C96.3,34.6,96.8,33.3,96.8,32z"/>
<path class="st0" d="M36,56c0-4.4,3.6-8,8-8h3.5c-1.3-1.1-2.4-2.5-3.3-4H44c-6.6,0-12,5.4-12,12v15h4V56z M58,24
	c-6.6,0-12,5.4-12,12s5.4,12,12,12s12-5.4,12-12S64.6,24,58,24z M58,44c-4.4,0-8-3.6-8-8s3.6-8,8-8s8,3.6,8,8S62.4,44,58,44z"/>
<path class="st0" d="M124,75h-2v-4c0-2.2-1.8-4-4-4h-1v-4c0-2.2-1.8-4-4-4H95c-2.2,0-4,1.8-4,4v4c0,2.2,1.8,4,4,4h1v4H4
	c-2.2,0-4,1.8-4,4v4c0,2.2,1.8,4,4,4h2v39c0,1.1,0.9,2,2,2s2-0.9,2-2V87h108v39c0,1.1,0.9,2,2,2s2-0.9,2-2V87h2c2.2,0,4-1.8,4-4v-4
	C128,76.8,126.2,75,124,75z M118,71v4h-18v-4H118z M95,67v-4h18v4H95z M124,83H4v-4h120V83z"/>
</svg>
