<?xml version="1.0" encoding="utf-8"?>
<!-- Generator: Adobe Illustrator 26.0.2, SVG Export Plug-In . SVG Version: 6.00 Build 0)  -->
<svg version="1.1" id="Layer_1" xmlns="http://www.w3.org/2000/svg" xmlns:xlink="http://www.w3.org/1999/xlink" x="0px" y="0px"
	 viewBox="0 0 64 64" style="enable-background:new 0 0 64 64;" xml:space="preserve">
<style type="text/css">
	.st0{fill:#FFFFFF;}
	.st1{fill:#EC5242;}
</style>
<path class="st0" d="M56.1,36.2H45.2c-0.8,0-1.5-0.7-1.5-1.5c0,0,0,0,0,0l0.2-5.3c0-0.7-0.4-1.2-1.1-1.3l-19.5-3.5
	c0.2,0.5,0.6,0.9,1.2,1c1.7,0.4,8.4,3.1,9.1,3.4c0.6,0.2,0.9,0.8,0.9,1.4v4.4c0,0.8-0.7,1.5-1.5,1.5H7.9c-0.8,0-1.5-0.7-1.5-1.5V6.5
	C6.4,5.6,7.1,5,7.9,5h48.1c0.8,0,1.5,0.7,1.5,1.5v28.2C57.6,35.5,56.9,36.2,56.1,36.2z M46.7,33.2h7.9V8H9.4v25.2h22.1v-1.8
	c-2.4-1-6.7-2.6-7.8-2.9c-2-0.5-3.5-2.3-3.6-4.4c-0.1-0.8,0.2-1.5,0.7-2.1c0.6-0.5,1.4-0.8,2.1-0.6L43.3,25c2.1,0.4,3.6,2.2,3.6,4.4
	L46.7,33.2z"/>
<path class="st1" d="M39.4,24.2c-3.4,0-6.2-2.8-6.2-6.2s2.8-6.2,6.2-6.2c3.4,0,6.2,2.8,6.2,6.2c0,0,0,0,0,0
	C45.5,21.4,42.8,24.1,39.4,24.2z M39.4,14.8c-1.7,0-3.2,1.4-3.2,3.2c0,1.7,1.4,3.2,3.2,3.2c1.7,0,3.2-1.4,3.2-3.2l0,0
	C42.5,16.3,41.1,14.8,39.4,14.8z M15.2,51.7c-3.4,0-6.2-2.8-6.1-6.2c0-3.4,2.8-6.2,6.2-6.1c3.4,0,6.2,2.8,6.1,6.2
	C21.4,48.9,18.6,51.7,15.2,51.7z M15.2,42.4c-1.7,0-3.2,1.4-3.1,3.2c0,1.7,1.4,3.2,3.2,3.1c1.7,0,3.1-1.4,3.1-3.2
	C18.4,43.8,17,42.4,15.2,42.4L15.2,42.4z"/>
<path class="st0" d="M21.8,59c-0.8,0-1.5-0.7-1.5-1.5v-0.3c0-1.9-1.6-3.5-3.5-3.5h-3c-1.9,0-3.5,1.6-3.5,3.5v0.3
	c0,0.8-0.7,1.5-1.5,1.5s-1.5-0.7-1.5-1.5v-0.3c0-3.6,2.9-6.5,6.5-6.5h3c3.6,0,6.5,2.9,6.5,6.5v0.3C23.3,58.4,22.6,59,21.8,59z
	 M32,51.7c-3.4,0-6.2-2.8-6.2-6.2c0-3.4,2.8-6.2,6.2-6.2c3.4,0,6.2,2.8,6.2,6.2c0,0,0,0,0,0C38.1,48.9,35.4,51.7,32,51.7z M32,42.4
	c-1.7,0-3.2,1.4-3.2,3.2c0,1.7,1.4,3.2,3.2,3.2c1.7,0,3.2-1.4,3.2-3.2c0,0,0,0,0,0C35.2,43.8,33.7,42.4,32,42.4z"/>
<path class="st0" d="M38.5,59c-0.8,0-1.5-0.7-1.5-1.5v-0.3c0-1.9-1.6-3.5-3.5-3.5h-3c-1.9,0-3.5,1.6-3.5,3.5v0.3
	c0,0.8-0.7,1.5-1.5,1.5S24,58.4,24,57.5v-0.3c0-3.6,2.9-6.5,6.5-6.5h3c3.6,0,6.5,2.9,6.5,6.5v0.3C40,58.4,39.3,59,38.5,59z
	 M48.8,51.7c-3.4,0-6.2-2.8-6.2-6.2s2.8-6.2,6.2-6.2c3.4,0,6.2,2.8,6.2,6.2c0,0,0,0,0,0C54.9,48.9,52.2,51.7,48.8,51.7z M48.8,42.4
	c-1.7,0-3.2,1.4-3.2,3.2c0,1.7,1.4,3.2,3.2,3.2c1.7,0,3.2-1.4,3.2-3.2c0,0,0,0,0,0C51.9,43.8,50.5,42.4,48.8,42.4L48.8,42.4z"/>
<path class="st0" d="M55.3,59c-0.8,0-1.5-0.7-1.5-1.5v-0.3c0-1.9-1.6-3.5-3.5-3.5h-3c-1.9,0-3.5,1.6-3.5,3.5v0.3
	c0,0.8-0.7,1.5-1.5,1.5s-1.5-0.7-1.5-1.5v-0.3c0-3.6,2.9-6.5,6.5-6.5h3c3.6,0,6.5,2.9,6.5,6.5v0.3C56.8,58.4,56.1,59,55.3,59z"/>
</svg>
