<svg xmlns="http://www.w3.org/2000/svg" xmlns:xlink="http://www.w3.org/1999/xlink" enable-background="new 0 0 50 50" viewBox="0 0 50 50"><path fill="#72B0E0" d="M31.7729,24.9999c0,3.7395-3.0378,6.7688-6.7773,6.7688c-3.7309,0-6.7687-3.0293-6.7687-6.7688
		s3.0378-6.7687,6.7687-6.7687C28.7352,18.2311,31.7729,21.2604,31.7729,24.9999z"/><path fill="#EEEAE8" d="M30.142,25.0025c0,2.837-2.3051,5.1368-5.1421,5.1368s-5.1421-2.2998-5.1421-5.1368
		c0-2.8422,2.3051-5.1421,5.1421-5.1421S30.142,22.1603,30.142,25.0025z"/><path fill="#545554" d="M28.6835,25.0018c0,2.0323-1.6512,3.6798-3.6836,3.6798s-3.6836-1.6475-3.6836-3.6798
		c0-2.0361,1.6513-3.6836,3.6836-3.6836S28.6835,22.9657,28.6835,25.0018z"/><path fill="#FFF" d="M22.424,23.3856c0,0.4929-0.4005,0.8996-0.8996,0.8996s-0.8996-0.4067-0.8996-0.8996
		c0-0.4991,0.4005-0.8996,0.8996-0.8996S22.424,22.8865,22.424,23.3856z"/><path fill="#666466" d="M25,48.418C12.0874,48.418,1.582,37.9126,1.582,25S12.0874,1.582,25,1.582S48.418,12.0874,48.418,25
		S37.9126,48.418,25,48.418z M25,3.582C13.1899,3.582,3.582,13.1899,3.582,25S13.1899,46.418,25,46.418S46.418,36.8101,46.418,25
		S36.8101,3.582,25,3.582z"/><path fill="#666466" d="M25,48.418c-6.0405,0-10.7725-10.2866-10.7725-23.418S18.9595,1.582,25,1.582S35.7725,11.8687,35.7725,25
		S31.0405,48.418,25,48.418z M25,3.582c-4.2363,0-8.7725,8.6064-8.7725,21.418S20.7637,46.418,25,46.418S33.7725,37.8115,33.7725,25
		S29.2363,3.582,25,3.582z"/><path fill="#666466" d="M25,35.772C11.8687,35.772,1.582,31.0405,1.582,25S11.8687,14.2275,25,14.2275S48.418,18.9595,48.418,25
			S38.1313,35.772,25,35.772z M25,16.2275c-12.8115,0-21.418,4.5361-21.418,8.7725S12.1885,33.772,25,33.772
			S46.418,29.2363,46.418,25S37.8115,16.2275,25,16.2275z"/><path fill="#EF4C4A" d="M18.6193,33.5729c0,1.4115-1.1391,2.5507-2.5424,2.5507c-1.4115,0-2.5507-1.1391-2.5507-2.5507
		c0-1.4032,1.1391-2.5424,2.5507-2.5424C17.4801,31.0305,18.6193,32.1696,18.6193,33.5729z"/><path fill="#66BB6A" d="M18.6193,16.369c0,1.4115-1.1391,2.5507-2.5424,2.5507c-1.4115,0-2.5507-1.1391-2.5507-2.5507
		c0-1.4032,1.1391-2.5424,2.5507-2.5424C17.4801,13.8267,18.6193,14.9658,18.6193,16.369z"/><path fill="#CC9F71" d="M36.7884,33.5761c0,1.4106-1.1416,2.5449-2.5449,2.5449c-1.4106,0-2.5522-1.1343-2.5522-2.5449
		c0-1.4033,1.1416-2.5449,2.5522-2.5449C35.6468,31.0311,36.7884,32.1727,36.7884,33.5761z"/><path fill="#FBD178" d="M36.5178,15.8691c0,1.4106-1.1416,2.5449-2.5449,2.5449c-1.4106,0-2.5522-1.1343-2.5522-2.5449
		c0-1.4033,1.1416-2.5449,2.5522-2.5449C35.3763,13.3241,36.5178,14.4657,36.5178,15.8691z"/><defs><path id="a" d="M-21,5.4595c0,2.4585-1.9934,4.452-4.4686,4.452c-2.4419,0-4.4354-1.9935-4.4354-4.452
				c0-2.4586,1.9935-4.4686,4.4354-4.4686C-22.9934,0.9909-21,3.0009-21,5.4595z"/></defs><clipPath id="b"><use overflow="visible" xlink:href="#a"/></clipPath><rect width="90.632" height="90.632" x="-75.024" y="-26.592" fill="none" clip-path="url(#b)"/><rect width="90.632" height="90.632" x="-75.024" y="-26.592" fill="#CC9F71" clip-path="url(#b)"/></svg>