<?xml version="1.0" encoding="utf-8"?>
<!-- Generator: Adobe Illustrator 26.0.2, SVG Export Plug-In . SVG Version: 6.00 Build 0)  -->
<svg version="1.1" id="Layer_1" xmlns="http://www.w3.org/2000/svg" xmlns:xlink="http://www.w3.org/1999/xlink" x="0px" y="0px"
	 viewBox="0 0 927 715" style="enable-background:new 0 0 927 715;" xml:space="preserve">
<style type="text/css">
	.st0{fill:#F2F2F2;}
	.st1{fill:#61CAFF;}
	.st2{fill:#FF61D6;}
	.st3{opacity:0.74;}
	.st4{fill:#444444;}
	.st5{fill:#EC5242;}
	.st6{opacity:0.79;fill:#444444;enable-background:new    ;}
	.st7{opacity:0.79;}
	.st8{fill:none;stroke:#444444;stroke-width:0.21;stroke-miterlimit:10;}
</style>
<g>
	<g id="Layer_2_00000168090581679436049010000001402412812087538860_">
		<g id="OBJECTS">
			
				<image style="overflow:visible;opacity:0.2;enable-background:new    ;" width="183" height="182" xlink:href="466032BC1C23349B.png"  transform="matrix(1 0 0 1 357 12)">
			</image>
			<circle class="st0" cx="448.5" cy="102.8" r="61.3"/>
			
				<image style="overflow:visible;opacity:0.15;enable-background:new    ;" width="183" height="183" xlink:href="466032BC1C233499.png"  transform="matrix(1 0 0 1 612 494)">
			</image>
			<circle class="st0" cx="703.3" cy="585.2" r="61.3"/>
			
				<image style="overflow:visible;opacity:0.15;enable-background:new    ;" width="182" height="182" xlink:href="466032BC1C23349F.png"  transform="matrix(1 0 0 1 0 278)">
			</image>
			<circle class="st0" cx="90.7" cy="368.7" r="61.3"/>
			
				<image style="overflow:visible;opacity:0.15;enable-background:new    ;" width="182" height="183" xlink:href="466032BC1C233498.png"  transform="matrix(1 0 0 1 0 532)">
			</image>
			<circle class="st0" cx="90.7" cy="623" r="61.3"/>
			
				<image style="overflow:visible;opacity:0.15;enable-background:new    ;" width="182" height="182" xlink:href="466032BC1C233496.png"  transform="matrix(1 0 0 1 745 0)">
			</image>
			<circle class="st0" cx="835.8" cy="90.7" r="61.3"/>
			<path class="st1" d="M765.7,126.6c0,0.7-0.6,1.3-1.3,1.3s-1.3-0.6-1.3-1.3c0-0.7,0.6-1.3,1.3-1.3c0,0,0,0,0,0
				C765.1,125.2,765.7,125.8,765.7,126.6C765.7,126.5,765.7,126.5,765.7,126.6z"/>
			<path class="st1" d="M773.8,126.6c0,0.7-0.6,1.3-1.3,1.3s-1.3-0.6-1.3-1.3c0-0.7,0.6-1.3,1.3-1.3c0,0,0,0,0,0
				C773.2,125.2,773.8,125.8,773.8,126.6C773.8,126.5,773.8,126.5,773.8,126.6z"/>
			<path class="st1" d="M782,126.6c0,0.7-0.6,1.3-1.3,1.3s-1.3-0.6-1.3-1.3c0-0.7,0.6-1.3,1.3-1.3c0,0,0,0,0,0
				C781.4,125.2,782,125.8,782,126.6C782,126.5,782,126.5,782,126.6z"/>
			<path class="st1" d="M790.1,126.6c0,0.7-0.6,1.3-1.3,1.3s-1.3-0.6-1.3-1.3c0-0.7,0.6-1.3,1.3-1.3c0,0,0,0,0,0
				C789.5,125.2,790.1,125.8,790.1,126.6C790.1,126.5,790.1,126.5,790.1,126.6z"/>
			<path class="st1" d="M798.2,126.6c0,0.7-0.6,1.3-1.3,1.3s-1.3-0.6-1.3-1.3c0-0.7,0.6-1.3,1.3-1.3c0,0,0,0,0,0
				C797.6,125.2,798.2,125.8,798.2,126.6C798.2,126.5,798.2,126.5,798.2,126.6z"/>
			<path class="st1" d="M806.3,126.6c0,0.7-0.6,1.3-1.3,1.3s-1.3-0.6-1.3-1.3c0-0.7,0.6-1.3,1.3-1.3c0,0,0,0,0,0
				C805.7,125.2,806.3,125.8,806.3,126.6C806.3,126.5,806.3,126.5,806.3,126.6z"/>
			<path class="st1" d="M765.7,134.3c0,0.7-0.6,1.3-1.3,1.3c-0.7,0-1.3-0.6-1.3-1.3c0-0.7,0.6-1.3,1.3-1.3S765.7,133.5,765.7,134.3
				C765.7,134.3,765.7,134.3,765.7,134.3z"/>
			<path class="st1" d="M773.8,134.3c0,0.7-0.6,1.3-1.3,1.3s-1.3-0.6-1.3-1.3c0-0.7,0.6-1.3,1.3-1.3c0,0,0,0,0,0
				C773.2,132.9,773.8,133.5,773.8,134.3z"/>
			<path class="st1" d="M782,134.3c0,0.7-0.6,1.3-1.3,1.3c-0.7,0-1.3-0.6-1.3-1.3c0-0.7,0.6-1.3,1.3-1.3S782,133.5,782,134.3
				C782,134.3,782,134.3,782,134.3z"/>
			<path class="st1" d="M790.1,134.3c0,0.7-0.6,1.3-1.3,1.3s-1.3-0.6-1.3-1.3c0-0.7,0.6-1.3,1.3-1.3c0,0,0,0,0,0
				C789.5,132.9,790.1,133.5,790.1,134.3z"/>
			<path class="st1" d="M798.2,134.3c0,0.7-0.6,1.3-1.3,1.3c-0.7,0-1.3-0.6-1.3-1.3c0-0.7,0.6-1.3,1.3-1.3S798.2,133.5,798.2,134.3
				C798.2,134.3,798.2,134.3,798.2,134.3z"/>
			<path class="st1" d="M806.3,134.3c0,0.7-0.6,1.3-1.3,1.3s-1.3-0.6-1.3-1.3c0-0.7,0.6-1.3,1.3-1.3c0,0,0,0,0,0
				C805.7,132.9,806.3,133.5,806.3,134.3z"/>
			<path class="st1" d="M765.7,142c0,0.7-0.6,1.3-1.3,1.3c-0.7,0-1.3-0.6-1.3-1.3c0-0.7,0.6-1.3,1.3-1.3S765.7,141.3,765.7,142
				C765.7,142,765.7,142,765.7,142z"/>
			<path class="st1" d="M773.8,142c0,0.7-0.6,1.3-1.3,1.3s-1.3-0.6-1.3-1.3c0-0.7,0.6-1.3,1.3-1.3c0,0,0,0,0,0
				C773.2,140.7,773.8,141.3,773.8,142z"/>
			<path class="st1" d="M782,142c0,0.7-0.6,1.3-1.3,1.3c-0.7,0-1.3-0.6-1.3-1.3c0-0.7,0.6-1.3,1.3-1.3S782,141.3,782,142
				C782,142,782,142,782,142z"/>
			<path class="st1" d="M790.1,142c0,0.7-0.6,1.3-1.3,1.3s-1.3-0.6-1.3-1.3c0-0.7,0.6-1.3,1.3-1.3c0,0,0,0,0,0
				C789.5,140.7,790.1,141.3,790.1,142z"/>
			<path class="st1" d="M798.2,142c0,0.7-0.6,1.3-1.3,1.3c-0.7,0-1.3-0.6-1.3-1.3c0-0.7,0.6-1.3,1.3-1.3S798.2,141.3,798.2,142
				C798.2,142,798.2,142,798.2,142z"/>
			<path class="st1" d="M806.3,142c0,0.7-0.6,1.3-1.3,1.3s-1.3-0.6-1.3-1.3c0-0.7,0.6-1.3,1.3-1.3c0,0,0,0,0,0
				C805.7,140.7,806.3,141.3,806.3,142z"/>
			<path class="st1" d="M272.1,530.8c0,0.7-0.6,1.3-1.3,1.3c-0.7,0-1.3-0.6-1.3-1.3s0.6-1.3,1.3-1.3c0,0,0,0,0,0
				C271.5,529.4,272.1,530,272.1,530.8z"/>
			<path class="st1" d="M280.2,530.8c0,0.7-0.6,1.3-1.3,1.3c-0.7,0-1.3-0.6-1.3-1.3c0-0.7,0.6-1.3,1.3-1.3
				C279.6,529.4,280.2,530,280.2,530.8C280.2,530.8,280.2,530.8,280.2,530.8z"/>
			<path class="st1" d="M288.3,530.8c0,0.7-0.6,1.3-1.3,1.3c-0.7,0-1.3-0.6-1.3-1.3s0.6-1.3,1.3-1.3c0,0,0,0,0,0
				C287.7,529.4,288.3,530,288.3,530.8z"/>
			<path class="st1" d="M296.4,530.8c0,0.7-0.6,1.3-1.3,1.3c-0.7,0-1.3-0.6-1.3-1.3c0-0.7,0.6-1.3,1.3-1.3
				C295.8,529.4,296.4,530,296.4,530.8C296.4,530.8,296.4,530.8,296.4,530.8z"/>
			<path class="st1" d="M304.6,530.8c0,0.7-0.6,1.3-1.3,1.3c-0.7,0-1.3-0.6-1.3-1.3s0.6-1.3,1.3-1.3c0,0,0,0,0,0
				C304,529.4,304.6,530,304.6,530.8z"/>
			<path class="st1" d="M312.7,530.8c0,0.7-0.6,1.3-1.3,1.3c-0.7,0-1.3-0.6-1.3-1.3c0-0.7,0.6-1.3,1.3-1.3
				C312.1,529.4,312.7,530,312.7,530.8C312.7,530.8,312.7,530.8,312.7,530.8z"/>
			<path class="st1" d="M272.1,538.5c0,0.7-0.6,1.3-1.3,1.3c-0.7,0-1.3-0.6-1.3-1.3s0.6-1.3,1.3-1.3c0,0,0,0,0,0
				C271.5,537.1,272.1,537.7,272.1,538.5z"/>
			<path class="st1" d="M280.2,538.5c0,0.7-0.6,1.3-1.3,1.3c-0.7,0-1.3-0.6-1.3-1.3c0-0.7,0.6-1.3,1.3-1.3
				C279.6,537.1,280.2,537.7,280.2,538.5C280.2,538.5,280.2,538.5,280.2,538.5z"/>
			<path class="st1" d="M288.3,538.5c0,0.7-0.6,1.3-1.3,1.3c-0.7,0-1.3-0.6-1.3-1.3s0.6-1.3,1.3-1.3c0,0,0,0,0,0
				C287.7,537.1,288.3,537.7,288.3,538.5z"/>
			<path class="st1" d="M296.4,538.5c0,0.7-0.6,1.3-1.3,1.3c-0.7,0-1.3-0.6-1.3-1.3c0-0.7,0.6-1.3,1.3-1.3
				C295.8,537.1,296.4,537.7,296.4,538.5C296.4,538.5,296.4,538.5,296.4,538.5z"/>
			<path class="st1" d="M304.6,538.5c0,0.7-0.6,1.3-1.3,1.3c-0.7,0-1.3-0.6-1.3-1.3s0.6-1.3,1.3-1.3c0,0,0,0,0,0
				C304,537.1,304.6,537.7,304.6,538.5z"/>
			<path class="st1" d="M312.7,538.5c0,0.7-0.6,1.3-1.3,1.3c-0.7,0-1.3-0.6-1.3-1.3c0-0.7,0.6-1.3,1.3-1.3
				C312.1,537.1,312.7,537.7,312.7,538.5C312.7,538.5,312.7,538.5,312.7,538.5z"/>
			<path class="st1" d="M272.1,546.2c0,0.7-0.6,1.3-1.3,1.3s-1.3-0.6-1.3-1.3s0.6-1.3,1.3-1.3c0,0,0,0,0,0
				C271.5,544.8,272.1,545.4,272.1,546.2z"/>
			<path class="st1" d="M280.2,546.2c0,0.7-0.6,1.3-1.3,1.3c-0.7,0-1.3-0.6-1.3-1.3c0-0.7,0.6-1.3,1.3-1.3S280.2,545.4,280.2,546.2
				L280.2,546.2z"/>
			<path class="st1" d="M288.3,546.2c0,0.7-0.6,1.3-1.3,1.3s-1.3-0.6-1.3-1.3s0.6-1.3,1.3-1.3c0,0,0,0,0,0
				C287.7,544.8,288.3,545.4,288.3,546.2z"/>
			<path class="st1" d="M296.4,546.2c0,0.7-0.6,1.3-1.3,1.3c-0.7,0-1.3-0.6-1.3-1.3c0-0.7,0.6-1.3,1.3-1.3S296.4,545.4,296.4,546.2
				L296.4,546.2z"/>
			<path class="st1" d="M304.6,546.2c0,0.7-0.6,1.3-1.3,1.3s-1.3-0.6-1.3-1.3s0.6-1.3,1.3-1.3c0,0,0,0,0,0
				C304,544.8,304.6,545.4,304.6,546.2z"/>
			<path class="st1" d="M312.7,546.2c0,0.7-0.6,1.3-1.3,1.3c-0.7,0-1.3-0.6-1.3-1.3c0-0.7,0.6-1.3,1.3-1.3S312.7,545.4,312.7,546.2
				L312.7,546.2z"/>
			<path class="st1" d="M56.9,125.2c0,0.7-0.6,1.3-1.3,1.3c-0.7,0-1.3-0.6-1.3-1.3c0-0.7,0.6-1.3,1.3-1.3c0,0,0,0,0,0
				C56.3,123.9,56.9,124.5,56.9,125.2z"/>
			<path class="st1" d="M65,125.2c0,0.7-0.6,1.3-1.3,1.3c-0.7,0-1.3-0.6-1.3-1.3c0-0.7,0.6-1.3,1.3-1.3
				C64.4,123.9,65,124.5,65,125.2C65,125.2,65,125.2,65,125.2z"/>
			<path class="st1" d="M73.2,125.2c0,0.7-0.6,1.3-1.3,1.3c-0.7,0-1.3-0.6-1.3-1.3c0-0.7,0.6-1.3,1.3-1.3c0,0,0,0,0,0
				C72.6,123.9,73.2,124.5,73.2,125.2z"/>
			<path class="st1" d="M81.3,125.2c0,0.7-0.6,1.3-1.3,1.3c-0.7,0-1.3-0.6-1.3-1.3c0-0.7,0.6-1.3,1.3-1.3c0,0,0,0,0,0
				C80.7,123.9,81.3,124.5,81.3,125.2z"/>
			<path class="st1" d="M89.4,125.2c0,0.7-0.6,1.3-1.3,1.3c-0.7,0-1.3-0.6-1.3-1.3c0-0.7,0.6-1.3,1.3-1.3c0,0,0,0,0,0
				C88.8,123.9,89.4,124.5,89.4,125.2z"/>
			<path class="st1" d="M97.5,125.2c0,0.7-0.6,1.3-1.3,1.3c-0.7,0-1.3-0.6-1.3-1.3c0-0.7,0.6-1.3,1.3-1.3
				C96.9,123.9,97.5,124.5,97.5,125.2C97.5,125.2,97.5,125.2,97.5,125.2z"/>
			<path class="st1" d="M56.9,132.9c0,0.7-0.6,1.3-1.3,1.3c-0.7,0-1.3-0.6-1.3-1.3c0-0.7,0.6-1.3,1.3-1.3c0,0,0,0,0,0
				C56.3,131.6,56.9,132.2,56.9,132.9z"/>
			<path class="st1" d="M65,132.9c0,0.7-0.6,1.3-1.3,1.3c-0.7,0-1.3-0.6-1.3-1.3c0-0.7,0.6-1.3,1.3-1.3
				C64.4,131.6,65,132.2,65,132.9L65,132.9z"/>
			<path class="st1" d="M73.2,132.9c0,0.7-0.6,1.3-1.3,1.3c-0.7,0-1.3-0.6-1.3-1.3c0-0.7,0.6-1.3,1.3-1.3c0,0,0,0,0,0
				C72.6,131.6,73.2,132.2,73.2,132.9z"/>
			<path class="st1" d="M81.3,132.9c0,0.7-0.6,1.3-1.3,1.3c-0.7,0-1.3-0.6-1.3-1.3c0-0.7,0.6-1.3,1.3-1.3c0,0,0,0,0,0
				C80.7,131.6,81.3,132.2,81.3,132.9z"/>
			<path class="st1" d="M89.4,132.9c0,0.7-0.6,1.3-1.3,1.3c-0.7,0-1.3-0.6-1.3-1.3c0-0.7,0.6-1.3,1.3-1.3c0,0,0,0,0,0
				C88.8,131.6,89.4,132.2,89.4,132.9z"/>
			<path class="st1" d="M97.5,132.9c0,0.7-0.6,1.3-1.3,1.3s-1.3-0.6-1.3-1.3c0-0.7,0.6-1.3,1.3-1.3S97.5,132.2,97.5,132.9
				L97.5,132.9z"/>
			<circle class="st1" cx="55.6" cy="140.6" r="1.3"/>
			<circle class="st1" cx="63.7" cy="140.6" r="1.3"/>
			<circle class="st1" cx="71.8" cy="140.6" r="1.3"/>
			<circle class="st1" cx="80" cy="140.6" r="1.3"/>
			<circle class="st1" cx="88.1" cy="140.6" r="1.3"/>
			<circle class="st1" cx="96.2" cy="140.6" r="1.3"/>
			<path class="st2" d="M756,571c0.7,0,1.3,0.6,1.3,1.3c0,0.7-0.6,1.3-1.3,1.3c-0.7,0-1.3-0.6-1.3-1.3
				C754.7,571.6,755.3,571,756,571C756,571,756,571,756,571z"/>
			<path class="st2" d="M756,562.8c0.7,0,1.3,0.6,1.3,1.3s-0.6,1.3-1.3,1.3s-1.3-0.6-1.3-1.3c0,0,0,0,0,0
				C754.7,563.4,755.3,562.8,756,562.8C756,562.8,756,562.8,756,562.8z"/>
			<path class="st2" d="M756,554.7c0.7,0,1.3,0.6,1.3,1.3c0,0.7-0.6,1.3-1.3,1.3c-0.7,0-1.3-0.6-1.3-1.3
				C754.7,555.3,755.3,554.7,756,554.7C756,554.7,756,554.7,756,554.7z"/>
			<path class="st2" d="M756,546.6c0.7,0,1.3,0.6,1.3,1.3s-0.6,1.3-1.3,1.3s-1.3-0.6-1.3-1.3c0,0,0,0,0,0
				C754.7,547.2,755.3,546.6,756,546.6C756,546.6,756,546.6,756,546.6z"/>
			<path class="st2" d="M756,538.5c0.7,0,1.3,0.6,1.3,1.3c0,0.7-0.6,1.3-1.3,1.3c-0.7,0-1.3-0.6-1.3-1.3
				C754.7,539.1,755.3,538.5,756,538.5C756,538.5,756,538.5,756,538.5z"/>
			<path class="st2" d="M756,530.3c0.7,0,1.3,0.6,1.3,1.3s-0.6,1.3-1.3,1.3s-1.3-0.6-1.3-1.3c0,0,0,0,0,0
				C754.7,530.9,755.3,530.3,756,530.3C756,530.3,756,530.3,756,530.3z"/>
			<path class="st2" d="M763.8,571c0.7,0,1.3,0.6,1.3,1.3c0,0.7-0.6,1.3-1.3,1.3c-0.7,0-1.3-0.6-1.3-1.3
				C762.4,571.6,763,571,763.8,571C763.8,571,763.8,571,763.8,571z"/>
			<path class="st2" d="M763.8,562.8c0.7,0,1.3,0.6,1.3,1.3c0,0.7-0.6,1.3-1.3,1.3c-0.7,0-1.3-0.6-1.3-1.3c0,0,0,0,0,0
				C762.4,563.4,763,562.8,763.8,562.8z"/>
			<path class="st2" d="M763.8,554.7c0.7,0,1.3,0.6,1.3,1.3c0,0.7-0.6,1.3-1.3,1.3c-0.7,0-1.3-0.6-1.3-1.3
				C762.4,555.3,763,554.7,763.8,554.7C763.8,554.7,763.8,554.7,763.8,554.7z"/>
			<path class="st2" d="M763.8,546.6c0.7,0,1.3,0.6,1.3,1.3c0,0.7-0.6,1.3-1.3,1.3c-0.7,0-1.3-0.6-1.3-1.3c0,0,0,0,0,0
				C762.4,547.2,763,546.6,763.8,546.6z"/>
			<path class="st2" d="M763.8,538.5c0.7,0,1.3,0.6,1.3,1.3c0,0.7-0.6,1.3-1.3,1.3c-0.7,0-1.3-0.6-1.3-1.3
				C762.4,539.1,763,538.5,763.8,538.5C763.8,538.5,763.8,538.5,763.8,538.5z"/>
			<path class="st2" d="M763.8,530.3c0.7,0,1.3,0.6,1.3,1.3c0,0.7-0.6,1.3-1.3,1.3c-0.7,0-1.3-0.6-1.3-1.3c0,0,0,0,0,0
				C762.4,530.9,763,530.3,763.8,530.3z"/>
			<path class="st2" d="M771.5,571c0.7,0,1.3,0.6,1.3,1.3c0,0.7-0.6,1.3-1.3,1.3c-0.7,0-1.3-0.6-1.3-1.3
				C770.1,571.6,770.7,571,771.5,571C771.5,571,771.5,571,771.5,571z"/>
			<path class="st2" d="M771.5,562.8c0.7,0,1.3,0.6,1.3,1.3c0,0.7-0.6,1.3-1.3,1.3c-0.7,0-1.3-0.6-1.3-1.3c0,0,0,0,0,0
				C770.1,563.4,770.7,562.8,771.5,562.8z"/>
			<path class="st2" d="M771.5,554.7c0.7,0,1.3,0.6,1.3,1.3c0,0.7-0.6,1.3-1.3,1.3c-0.7,0-1.3-0.6-1.3-1.3
				C770.1,555.3,770.7,554.7,771.5,554.7C771.5,554.7,771.5,554.7,771.5,554.7z"/>
			<path class="st2" d="M771.5,546.6c0.7,0,1.3,0.6,1.3,1.3c0,0.7-0.6,1.3-1.3,1.3c-0.7,0-1.3-0.6-1.3-1.3c0,0,0,0,0,0
				C770.1,547.2,770.7,546.6,771.5,546.6z"/>
			<path class="st2" d="M771.5,538.5c0.7,0,1.3,0.6,1.3,1.3c0,0.7-0.6,1.3-1.3,1.3c-0.7,0-1.3-0.6-1.3-1.3
				C770.1,539.1,770.7,538.5,771.5,538.5C771.5,538.5,771.5,538.5,771.5,538.5z"/>
			<path class="st2" d="M771.5,530.3c0.7,0,1.3,0.6,1.3,1.3c0,0.7-0.6,1.3-1.3,1.3c-0.7,0-1.3-0.6-1.3-1.3c0,0,0,0,0,0
				C770.1,530.9,770.7,530.3,771.5,530.3z"/>
			<path class="st2" d="M98.9,584.5c0.7,0,1.3,0.6,1.3,1.3c0,0.7-0.6,1.3-1.3,1.3c-0.7,0-1.3-0.6-1.3-1.3
				C97.5,585.1,98.1,584.5,98.9,584.5C98.9,584.5,98.9,584.5,98.9,584.5z"/>
			<path class="st2" d="M98.9,576.4c0.7,0,1.3,0.6,1.3,1.3c0,0.7-0.6,1.3-1.3,1.3c-0.7,0-1.3-0.6-1.3-1.3c0,0,0,0,0,0
				C97.5,577,98.1,576.4,98.9,576.4z"/>
			<path class="st2" d="M98.9,568.2c0.7,0,1.3,0.6,1.3,1.3c0,0.7-0.6,1.3-1.3,1.3c-0.7,0-1.3-0.6-1.3-1.3
				C97.5,568.8,98.1,568.2,98.9,568.2C98.9,568.2,98.9,568.2,98.9,568.2z"/>
			<path class="st2" d="M98.9,560.1c0.7,0,1.3,0.6,1.3,1.3c0,0.7-0.6,1.3-1.3,1.3c-0.7,0-1.3-0.6-1.3-1.3c0,0,0,0,0,0
				C97.5,560.7,98.1,560.1,98.9,560.1z"/>
			<path class="st2" d="M98.9,552c0.7,0,1.3,0.6,1.3,1.3c0,0.7-0.6,1.3-1.3,1.3c-0.7,0-1.3-0.6-1.3-1.3
				C97.5,552.6,98.1,552,98.9,552C98.9,552,98.9,552,98.9,552z"/>
			<path class="st2" d="M98.9,543.9c0.7,0,1.3,0.6,1.3,1.3c0,0.7-0.6,1.3-1.3,1.3c-0.7,0-1.3-0.6-1.3-1.3c0,0,0,0,0,0
				C97.5,544.5,98.1,543.9,98.9,543.9z"/>
			<circle class="st2" cx="106.6" cy="585.8" r="1.3"/>
			<circle class="st2" cx="106.6" cy="577.7" r="1.3"/>
			<circle class="st2" cx="106.6" cy="569.6" r="1.3"/>
			<circle class="st2" cx="106.6" cy="561.4" r="1.3"/>
			<circle class="st2" cx="106.6" cy="553.3" r="1.3"/>
			<circle class="st2" cx="106.6" cy="545.2" r="1.3"/>
			<path class="st2" d="M114.3,584.5c0.7,0,1.3,0.6,1.3,1.3c0,0.7-0.6,1.3-1.3,1.3s-1.3-0.6-1.3-1.3S113.6,584.5,114.3,584.5
				C114.3,584.5,114.3,584.5,114.3,584.5z"/>
			<path class="st2" d="M114.3,576.4c0.7,0,1.3,0.6,1.3,1.3s-0.6,1.3-1.3,1.3c-0.7,0-1.3-0.6-1.3-1.3c0,0,0,0,0,0
				C113,577,113.6,576.4,114.3,576.4z"/>
			<path class="st2" d="M114.3,568.2c0.7,0,1.3,0.6,1.3,1.3c0,0.7-0.6,1.3-1.3,1.3s-1.3-0.6-1.3-1.3S113.6,568.2,114.3,568.2
				C114.3,568.2,114.3,568.2,114.3,568.2z"/>
			<path class="st2" d="M114.3,560.1c0.7,0,1.3,0.6,1.3,1.3s-0.6,1.3-1.3,1.3c-0.7,0-1.3-0.6-1.3-1.3c0,0,0,0,0,0
				C113,560.7,113.6,560.1,114.3,560.1z"/>
			<path class="st2" d="M114.3,552c0.7,0,1.3,0.6,1.3,1.3c0,0.7-0.6,1.3-1.3,1.3s-1.3-0.6-1.3-1.3S113.6,552,114.3,552
				C114.3,552,114.3,552,114.3,552z"/>
			<path class="st2" d="M114.3,543.9c0.7,0,1.3,0.6,1.3,1.3s-0.6,1.3-1.3,1.3c-0.7,0-1.3-0.6-1.3-1.3c0,0,0,0,0,0
				C113,544.5,113.6,543.9,114.3,543.9z"/>
			<path class="st2" d="M625.2,135.3c0.7,0,1.3,0.6,1.3,1.3s-0.6,1.3-1.3,1.3s-1.3-0.6-1.3-1.3c0,0,0,0,0,0
				C623.9,135.9,624.5,135.3,625.2,135.3L625.2,135.3z"/>
			<path class="st2" d="M625.2,127.2c0.7,0,1.3,0.6,1.3,1.3c0,0.7-0.6,1.3-1.3,1.3c-0.7,0-1.3-0.6-1.3-1.3c0,0,0,0,0,0
				C623.9,127.8,624.5,127.2,625.2,127.2C625.2,127.2,625.2,127.2,625.2,127.2z"/>
			<path class="st2" d="M625.2,119.1c0.7,0,1.3,0.6,1.3,1.3s-0.6,1.3-1.3,1.3s-1.3-0.6-1.3-1.3c0,0,0,0,0,0
				C623.9,119.6,624.5,119.1,625.2,119.1L625.2,119.1z"/>
			<path class="st2" d="M625.2,110.9c0.7,0,1.3,0.6,1.3,1.3c0,0.7-0.6,1.3-1.3,1.3c-0.7,0-1.3-0.6-1.3-1.3c0,0,0,0,0,0
				C623.9,111.5,624.5,110.9,625.2,110.9C625.2,110.9,625.2,110.9,625.2,110.9z"/>
			<path class="st2" d="M625.2,102.8c0.7,0,1.3,0.6,1.3,1.3s-0.6,1.3-1.3,1.3s-1.3-0.6-1.3-1.3c0,0,0,0,0,0
				C623.9,103.4,624.5,102.8,625.2,102.8L625.2,102.8z"/>
			<path class="st2" d="M625.2,94.7c0.7,0,1.3,0.6,1.3,1.3s-0.6,1.3-1.3,1.3s-1.3-0.6-1.3-1.3c0,0,0,0,0,0
				C623.9,95.3,624.5,94.7,625.2,94.7L625.2,94.7z"/>
			<circle class="st2" cx="632.9" cy="136.6" r="1.3"/>
			<circle class="st2" cx="632.9" cy="128.5" r="1.3"/>
			<circle class="st2" cx="632.9" cy="120.4" r="1.3"/>
			<circle class="st2" cx="632.9" cy="112.3" r="1.3"/>
			<circle class="st2" cx="632.9" cy="104.1" r="1.3"/>
			<circle class="st2" cx="632.9" cy="96" r="1.3"/>
			<path class="st2" d="M640.6,135.3c0.7,0,1.3,0.6,1.3,1.3c0,0.7-0.6,1.3-1.3,1.3c-0.7,0-1.3-0.6-1.3-1.3c0,0,0,0,0,0
				C639.3,135.9,639.9,135.3,640.6,135.3z"/>
			<path class="st2" d="M640.6,127.2c0.7,0,1.3,0.6,1.3,1.3c0,0.7-0.6,1.3-1.3,1.3c-0.7,0-1.3-0.6-1.3-1.3
				C639.3,127.8,639.9,127.2,640.6,127.2L640.6,127.2z"/>
			<path class="st2" d="M640.6,119.1c0.7,0,1.3,0.6,1.3,1.3c0,0.7-0.6,1.3-1.3,1.3s-1.3-0.6-1.3-1.3c0,0,0,0,0,0
				C639.3,119.6,639.9,119,640.6,119.1z"/>
			<path class="st2" d="M640.6,110.9c0.7,0,1.3,0.6,1.3,1.3s-0.6,1.3-1.3,1.3s-1.3-0.6-1.3-1.3C639.3,111.5,639.9,110.9,640.6,110.9
				L640.6,110.9z"/>
			<path class="st2" d="M640.6,102.8c0.7,0,1.3,0.6,1.3,1.3c0,0.7-0.6,1.3-1.3,1.3s-1.3-0.6-1.3-1.3c0,0,0,0,0,0
				C639.3,103.4,639.9,102.8,640.6,102.8z"/>
			<path class="st2" d="M640.6,94.7c0.7,0,1.3,0.6,1.3,1.3c0,0.7-0.6,1.3-1.3,1.3s-1.3-0.6-1.3-1.3c0,0,0,0,0,0
				C639.3,95.3,639.9,94.7,640.6,94.7z"/>
			<path class="st2" d="M850.9,284.4c0-0.7,0.6-1.3,1.3-1.3s1.3,0.6,1.3,1.3c0,0.7-0.6,1.3-1.3,1.3c0,0,0,0,0,0
				C851.5,285.7,850.9,285.1,850.9,284.4z"/>
			<path class="st2" d="M842.8,284.4c0-0.7,0.6-1.3,1.3-1.3c0.7,0,1.3,0.6,1.3,1.3c0,0.7-0.6,1.3-1.3,1.3S842.8,285.1,842.8,284.4
				L842.8,284.4z"/>
			<path class="st2" d="M834.7,284.4c0-0.7,0.6-1.3,1.3-1.3s1.3,0.6,1.3,1.3c0,0.7-0.6,1.3-1.3,1.3c0,0,0,0,0,0
				C835.3,285.7,834.7,285.1,834.7,284.4z"/>
			<path class="st2" d="M826.6,284.4c0-0.7,0.6-1.3,1.3-1.3c0.7,0,1.3,0.6,1.3,1.3c0,0.7-0.6,1.3-1.3,1.3S826.6,285.1,826.6,284.4
				L826.6,284.4z"/>
			<path class="st2" d="M818.4,284.4c0-0.7,0.6-1.3,1.3-1.3s1.3,0.6,1.3,1.3c0,0.7-0.6,1.3-1.3,1.3c0,0,0,0,0,0
				C819,285.7,818.4,285.1,818.4,284.4z"/>
			<path class="st2" d="M810.3,284.4c0-0.7,0.6-1.3,1.3-1.3c0.7,0,1.3,0.6,1.3,1.3c0,0.7-0.6,1.3-1.3,1.3S810.3,285.1,810.3,284.4
				L810.3,284.4z"/>
			<path class="st2" d="M850.9,276.7c0-0.7,0.6-1.3,1.3-1.3s1.3,0.6,1.3,1.3c0,0.7-0.6,1.3-1.3,1.3c0,0,0,0,0,0
				C851.5,278,850.9,277.4,850.9,276.7z"/>
			<path class="st2" d="M842.8,276.7c0-0.7,0.6-1.3,1.3-1.3c0.7,0,1.3,0.6,1.3,1.3c0,0.7-0.6,1.3-1.3,1.3S842.8,277.4,842.8,276.7
				L842.8,276.7z"/>
			<path class="st2" d="M834.7,276.7c0-0.7,0.6-1.4,1.3-1.4s1.4,0.6,1.4,1.3c0,0.7-0.6,1.4-1.3,1.4c0,0,0,0-0.1,0
				C835.3,278,834.7,277.4,834.7,276.7z"/>
			<path class="st2" d="M826.6,276.7c0-0.7,0.6-1.4,1.3-1.4c0.7,0,1.4,0.6,1.4,1.3c0,0.7-0.6,1.4-1.3,1.4c0,0,0,0,0,0
				C827.2,278,826.6,277.4,826.6,276.7z"/>
			<path class="st2" d="M818.4,276.7c0-0.7,0.6-1.3,1.3-1.3s1.3,0.6,1.3,1.3c0,0.7-0.6,1.3-1.3,1.3c0,0,0,0,0,0
				C819,278,818.4,277.4,818.4,276.7z"/>
			<path class="st2" d="M810.3,276.7c0-0.7,0.6-1.3,1.3-1.3c0.7,0,1.3,0.6,1.3,1.3c0,0.7-0.6,1.3-1.3,1.3S810.3,277.4,810.3,276.7
				L810.3,276.7z"/>
			<path class="st2" d="M850.9,269c0-0.7,0.6-1.3,1.3-1.3c0.7,0,1.3,0.6,1.3,1.3c0,0.7-0.6,1.3-1.3,1.3c0,0,0,0,0,0
				C851.5,270.3,850.9,269.7,850.9,269z"/>
			<path class="st2" d="M842.8,269c0-0.7,0.6-1.3,1.3-1.3s1.3,0.6,1.3,1.3c0,0.7-0.6,1.3-1.3,1.3c0,0,0,0,0,0
				C843.4,270.3,842.8,269.7,842.8,269z"/>
			<path class="st2" d="M834.7,269c0-0.7,0.6-1.3,1.3-1.3c0.7,0,1.3,0.6,1.3,1.3c0,0.7-0.6,1.3-1.3,1.3c0,0,0,0,0,0
				C835.3,270.3,834.7,269.7,834.7,269z"/>
			<path class="st2" d="M826.6,269c0-0.7,0.6-1.3,1.3-1.3s1.3,0.6,1.3,1.3c0,0.7-0.6,1.3-1.3,1.3c0,0,0,0,0,0
				C827.2,270.3,826.6,269.7,826.6,269z"/>
			<path class="st2" d="M818.4,269c0-0.7,0.6-1.3,1.3-1.3c0.7,0,1.3,0.6,1.3,1.3c0,0.7-0.6,1.3-1.3,1.3c0,0,0,0,0,0
				C819,270.3,818.4,269.7,818.4,269z"/>
			<path class="st2" d="M810.3,269c0-0.7,0.6-1.3,1.3-1.3s1.3,0.6,1.3,1.3c0,0.7-0.6,1.3-1.3,1.3c0,0,0,0,0,0
				C810.9,270.3,810.3,269.7,810.3,269z"/>
			<g class="st3">
				<rect x="715.1" y="172.8" class="st4" width="2.2" height="2.2"/>
				<rect x="715.1" y="188.2" class="st4" width="2.2" height="2.2"/>
				<rect x="715.1" y="203.7" class="st4" width="2.2" height="2.2"/>
				<rect x="715.1" y="219.1" class="st4" width="2.2" height="2.2"/>
				<rect x="715.1" y="234.6" class="st4" width="2.2" height="2.2"/>
			</g>
			<g class="st3">
				<rect x="181.1" y="480.9" class="st4" width="2.2" height="2.2"/>
				<rect x="181.1" y="496.4" class="st4" width="2.2" height="2.2"/>
				<rect x="181.1" y="511.8" class="st4" width="2.2" height="2.2"/>
				<rect x="181.1" y="527.2" class="st4" width="2.2" height="2.2"/>
				<rect x="181.1" y="542.7" class="st4" width="2.2" height="2.2"/>
			</g>
			<g class="st3">
				<rect x="113.2" y="91.9" class="st4" width="2.2" height="2.2"/>
				<rect x="113.2" y="107.3" class="st4" width="2.2" height="2.2"/>
				<rect x="113.2" y="122.8" class="st4" width="2.2" height="2.2"/>
				<rect x="113.2" y="138.2" class="st4" width="2.2" height="2.2"/>
				<rect x="113.2" y="153.7" class="st4" width="2.2" height="2.2"/>
			</g>
			<g class="st3">
				<rect x="802.6" y="465.5" class="st4" width="2.2" height="2.2"/>
				<rect x="802.6" y="480.9" class="st4" width="2.2" height="2.2"/>
				<rect x="802.6" y="496.4" class="st4" width="2.2" height="2.2"/>
				<rect x="802.6" y="511.8" class="st4" width="2.2" height="2.2"/>
				<rect x="802.6" y="527.2" class="st4" width="2.2" height="2.2"/>
			</g>
			<rect x="711.8" y="308.1" class="st2" width="11" height="3.8"/>
			<rect x="715.4" y="304.5" class="st2" width="3.8" height="11"/>
			<rect x="378" y="577.2" class="st2" width="11" height="3.8"/>
			<rect x="381.6" y="573.6" class="st2" width="3.8" height="11"/>
			<rect x="299.6" y="219.4" class="st5" width="11" height="3.8"/>
			<rect x="303.2" y="215.8" class="st5" width="3.8" height="11"/>
			<polygon class="st6" points="130.3,230.4 126.7,230.4 126.7,226.8 122.9,226.8 122.9,230.4 119.3,230.4 119.3,234.2 122.9,234.2 
				122.9,237.8 126.7,237.8 126.7,234.2 130.3,234.2 			"/>
			<polygon class="st6" points="86,517.6 82.4,517.6 82.4,514 78.6,514 78.6,517.6 75,517.6 75,521.4 78.6,521.4 78.6,525 82.4,525 
				82.4,521.4 86,521.4 			"/>
			<polygon class="st6" points="440.7,547.4 437,547.4 437,543.8 433.3,543.8 433.3,547.4 429.7,547.4 429.7,551.1 433.3,551.1 
				433.3,554.8 437,554.8 437,551.1 440.7,551.1 			"/>
			<polygon class="st6" points="208.2,457 204.6,457 204.6,453.3 200.8,453.3 200.8,457 197.2,457 197.2,460.7 200.8,460.7 
				200.8,464.3 204.6,464.3 204.6,460.7 208.2,460.7 			"/>
			<polygon class="st6" points="728.2,479 724.6,479 724.6,475.4 720.9,475.4 720.9,479 717.3,479 717.3,482.8 720.9,482.8 
				720.9,486.4 724.6,486.4 724.6,482.8 728.2,482.8 			"/>
			<g class="st7">
				<rect x="817.5" y="165.1" class="st4" width="11" height="3.8"/>
				<rect x="821.1" y="161.5" class="st4" width="3.8" height="11"/>
			</g>
			<polygon class="st6" points="585,176.1 581.4,176.1 581.4,172.5 577.7,172.5 577.7,176.1 574,176.1 574,179.8 577.7,179.8 
				577.7,183.4 581.4,183.4 581.4,179.8 585,179.8 			"/>
			<polygon class="st6" points="325,116.9 321.4,116.9 321.4,113.3 317.7,113.3 317.7,116.9 314,116.9 314,120.7 317.7,120.7 
				317.7,124.3 321.4,124.3 321.4,120.7 325,120.7 			"/>
			<rect x="187.2" y="274.8" class="st0" width="11" height="3.8"/>
			<rect x="190.8" y="271.2" class="st0" width="3.8" height="11"/>
			<rect x="765.7" y="401.6" class="st0" width="11" height="3.8"/>
			<rect x="769.3" y="398" class="st0" width="3.8" height="11"/>
			<rect x="574" y="555.4" class="st0" width="11" height="3.8"/>
			<rect x="577.7" y="551.8" class="st0" width="3.8" height="11"/>
			<rect x="804.8" y="582.6" class="st5" width="11" height="3.8"/>
			<rect x="808.4" y="579" class="st5" width="3.8" height="11"/>
			<rect x="156.9" y="106.6" class="st5" width="11" height="3.8"/>
			<rect x="160.6" y="102.9" class="st5" width="3.8" height="11"/>
			<line class="st8" x1="755.1" y1="249.9" x2="809" y2="193.4"/>
			<line class="st8" x1="771.3" y1="247.3" x2="825.1" y2="190.9"/>
			<line class="st8" x1="787.5" y1="244.8" x2="841.3" y2="188.4"/>
			<line class="st8" x1="559" y1="527.1" x2="612.9" y2="470.7"/>
			<line class="st8" x1="575.2" y1="524.6" x2="629.1" y2="468.1"/>
			<line class="st8" x1="591.4" y1="522.1" x2="645.2" y2="465.6"/>
			<line class="st8" x1="281.4" y1="623.7" x2="335.2" y2="567.2"/>
			<line class="st8" x1="297.6" y1="621.2" x2="351.4" y2="564.7"/>
			<line class="st8" x1="313.8" y1="618.6" x2="367.6" y2="562.2"/>
			<line class="st8" x1="165.8" y1="152.1" x2="219.6" y2="95.7"/>
			<line class="st8" x1="181.9" y1="149.6" x2="235.8" y2="93.1"/>
			<line class="st8" x1="198.1" y1="147" x2="252" y2="90.6"/>
			<line class="st8" x1="520.3" y1="154.6" x2="574.1" y2="98.2"/>
			<line class="st8" x1="536.4" y1="152.1" x2="590.3" y2="95.7"/>
			<line class="st8" x1="552.6" y1="149.6" x2="606.5" y2="93.1"/>
			<line class="st8" x1="38.2" y1="472.3" x2="92" y2="415.9"/>
			<line class="st8" x1="54.4" y1="469.8" x2="108.2" y2="413.3"/>
			<line class="st8" x1="70.6" y1="467.3" x2="124.4" y2="410.8"/>
			
				<ellipse transform="matrix(0.7071 -0.7071 0.7071 0.7071 128.6319 527.4526)" class="st5" cx="701" cy="108.5" rx="14.6" ry="14.6"/>
			<circle class="st5" cx="128.9" cy="322.8" r="14.6"/>
			<circle class="st2" cx="647.5" cy="605.7" r="14.6"/>
			<circle class="st2" cx="215.8" cy="611.7" r="14.6"/>
		</g>
	</g>
</g>
</svg>
