<svg xmlns="http://www.w3.org/2000/svg" viewBox="0 0 1611 1425" ><defs><style>.cls-1,.cls-2,.cls-3,.cls-4,.cls-5{fill:none;stroke-linecap:round;stroke-linejoin:round;stroke-width:13px;opacity:0.5;}.cls-1{stroke:#44ab96;}.cls-2{stroke:#e53855;}.cls-3{stroke:#ffb017;}.cls-4{stroke:#da774a;}.cls-5{stroke:#4484ab;}</style></defs><g id="Layer_2" data-name="Layer 2"><g id="Background"><g id="Taieri"><g id="Patterns"><g id="Taieri-2" data-name="Taieri"><g id="Shape"><path class="cls-1" d="M1604.5,1005.5c0,32-25.74,58-57.5,58s-57.5-26-57.5-58"/><path class="cls-2" d="M1604.5,161.5c-39.77,0-72-32.46-72-72.5s32.23-72.5,72-72.5"/><path class="cls-1" d="M566.5,75.41a60,60,0,1,0,120,0V7.5"/><path class="cls-3" d="M141.74,1418.5C67.05,1418.5,6.5,1358.29,6.5,1284s60.55-134.5,135.24-134.5H265.5"/><path class="cls-1" d="M133.48,1326.5c-24.84,0-45-19.47-45-43.5s20.14-43.5,45-43.5h48"/><path class="cls-4" d="M1604.5,468.5V300.18a60,60,0,0,0-120,0v26.05"/><path class="cls-4" d="M677.5,972H498.06c-45.23,0-81.89,36.47-81.89,81.46S452.83,1135,498.06,1135h74.06M371.34,1418.5h-10.7a57.21,57.21,0,0,1,0-114.42H488.22a84.48,84.48,0,0,0,84.43-84.53m-178.39-625v64.29c0,78.3,63.41,141.78,141.62,141.78h56.41a85.26,85.26,0,0,1,85.21,85.31"/><circle class="cls-1" cx="592.5" cy="399.5" r="40"/><ellipse class="cls-2" cx="702.5" cy="1202" rx="58" ry="57.5"/><circle class="cls-1" cx="188.5" cy="263.5" r="63"/><path class="cls-3" d="M189,400.5c77.6,0,140.5-62,140.5-138.5S266.6,123.5,189,123.5,48.5,185.51,48.5,262"/><path class="cls-1" d="M1315.71,1231c-21.35,79.81,24.83,161.55,103.14,182.58s159.09-26.65,180.44-106.47-24.83-161.55-103.14-182.57"/><path class="cls-4" d="M486.33,1219.5c-85,0-153.83-75.43-153.83-168.49a179.74,179.74,0,0,1,22.7-88.14M591.5,881.5H486.7c-33.53,0-64.56,11.6-89.84,31.3"/><path class="cls-1" d="M333,420.5A57.5,57.5,0,1,0,390.5,478V420.5"/><path class="cls-2" d="M350.5,84c0,42.25,34,76.5,76,76.5s76-34.25,76-76.5-34-76.5-76-76.5h-76"/><path class="cls-1" d="M76,873.08c-36.73,0-66.5-29.45-66.5-65.79S39.27,741.5,76,741.5s66.5,29.46,66.5,65.79V1008.5"/><path class="cls-1" d="M1466.49,876.5c0,33.69,26.87,61,60,61s60-27.31,60-61-26.86-61-60-61h-201"/><path class="cls-5" d="M970.5,146.29c-35.35,0-64,28.25-64,63.11s28.65,63.1,64,63.1,64-28.25,64-63.1V6.5"/><path class="cls-1" d="M919.42,1360.5c0-32,25.76-58,57.54-58s57.54,26,57.54,58-25.76,58-57.54,58H885.5"/><path class="cls-4" d="M1094,569.08a57.21,57.21,0,1,1-57.5,57.21V412.5"/><path class="cls-4" d="M67,575.21c-31.76,0-57.5,25.36-57.5,56.64S35.24,688.5,67,688.5s57.5-25.36,57.5-56.65V400.5"/><path class="cls-3" d="M693.2,400.5c0-56.88-45.37-103-101.35-103S490.5,343.62,490.5,400.5s45.38,103,101.35,103H857.5"/><path class="cls-1" d="M1503.14,733.5c56,0,101.36-46.12,101.36-103s-45.37-103-101.36-103H1237.5"/><path class="cls-4" d="M1111.5,182c0-53.3,42.74-96.5,95.46-96.5H1305c52.72,0,95.46,43.2,95.46,96.5h0c0,53.3-42.74,96.5-95.46,96.5H1207c-52.72,0-95.46-43.2-95.46-96.5Z"/><path class="cls-3" d="M271,877.5a59.45,59.45,0,0,1-59.5-59.4V648.9A59.45,59.45,0,0,1,271,589.5h0a59.45,59.45,0,0,1,59.5,59.4V818.1A59.45,59.45,0,0,1,271,877.5Z"/><path class="cls-2" d="M832.5,802V712.67A46.34,46.34,0,0,1,879,666.5h0a46.34,46.34,0,0,1,46.5,46.17V891.33A46.34,46.34,0,0,1,879,937.5h0a46.34,46.34,0,0,1-46.5-46.17V869.75"/><path class="cls-3" d="M918.5,324.43v7.79A80.39,80.39,0,0,1,838,412.5h0a80.39,80.39,0,0,1-80.5-80.28V87.78A80.39,80.39,0,0,1,838,7.5h0a80.39,80.39,0,0,1,80.5,80.28v2.4"/><path class="cls-3" d="M76.25,958.5H71.44a62,62,0,0,0-61.94,62h0a62,62,0,0,0,61.94,62H214.56a62,62,0,0,0,61.94-62h0a62,62,0,0,0-61.94-62h-4.81"/><path class="cls-1" d="M755.5,666.5V898.14c0,69.23,56.64,125.36,126.5,125.36s126.5-56.13,126.5-125.36V843.41"/><path class="cls-1" d="M501.5,1058.5H709.3c79.09,0,143.2,64.47,143.2,144s-64.11,144-143.2,144H646.79"/><path class="cls-5" d="M590.5,707.5H541.31a60,60,0,0,1,0-120h98.38a59.9,59.9,0,0,1,59.81,60v5.33A54.59,54.59,0,0,1,645,707.5"/><path class="cls-1" d="M1094,478.5h56.18c37.73,0,68.32-28.88,68.32-64.5s-30.59-64.5-68.32-64.5H1037.82c-37.73,0-68.32,28.88-68.32,64.5"/><path class="cls-1" d="M679.5,209.5H544.82c-85.23,0-154.32,69.4-154.32,155"/><path class="cls-2" d="M1454,1213.34c31.76,0,57.5,25.56,57.5,57.08s-25.74,57.08-57.5,57.08-57.5-25.56-57.5-57.08V898.5"/><path class="cls-1" d="M1023.5,1250.5c0-58.54,46.85-106,104.63-106H1312.5"/><path class="cls-5" d="M751.5,587.5h98.37c66.07,0,119.63-53.73,119.63-120"/><path class="cls-5" d="M1325.5,900.5v53.76a98.27,98.27,0,0,1-98.29,98.24H1150.5"/><path class="cls-4" d="M1511.5,632.5h-84c-60.75,0-110,49.7-110,111"/><path class="cls-1" d="M222.5,1418.5v-91.12c0-52.46,41-96.41,96-107.88"/><path class="cls-1" d="M49,332.5v184"/><path class="cls-1" d="M1093,755.5v152"/><path class="cls-1" d="M939,1168.5v62"/><path class="cls-3" d="M1237.5,593.5V735.83a40.7,40.7,0,0,1-40.86,40.54,40.71,40.71,0,0,0-40.87,40.55v8.41a40.72,40.72,0,0,0,40.87,40.55,40.71,40.71,0,0,1,40.86,40.55v9.31a50.06,50.06,0,0,1-50.25,49.87h-64.17M958.5,1098.5h26.78a100.12,100.12,0,0,0,100.18-100.06"/><path class="cls-2" d="M1485.5,396.42V416.7a51.87,51.87,0,0,1-51.94,51.8h0a51.88,51.88,0,0,1-52-51.8V399.9a51.47,51.47,0,0,0-51.54-51.4h0a51.48,51.48,0,0,0-51.56,51.4v20.68"/><path class="cls-5" d="M1093.5,1292.47a73,73,0,0,1,73-73h0a73,73,0,0,1,73,73v53.06a73,73,0,0,1-73,73h0a73,73,0,0,1-73-73Z"/></g></g></g></g></g></g></svg>