<svg xmlns="http://www.w3.org/2000/svg" xmlns:xlink="http://www.w3.org/1999/xlink" viewBox="0 0 894.68 531.96"><defs><style>.cls-1,.cls-3,.cls-6{fill:none;}.cls-2{clip-path:url(#clip-path);}.cls-3{stroke:#c1b9b9;}.cls-3,.cls-6{stroke-miterlimit:10;stroke-width:2px;}.cls-4{fill:#ffc238;}.cls-5{fill:#c1b9b9;}.cls-6{stroke:#ffc238;}.cls-7{opacity:0.5;}</style><clipPath id="clip-path" transform="translate(100.92 25.12)"><rect class="cls-1" width="750" height="500"/></clipPath></defs><g id="Layer_2" data-name="Layer 2"><g id="OBJECTS"><g class="cls-2"><path class="cls-3" d="M52.91,126.37c5.15,0,5.15,12,10.31,12s5.15-12,10.3-12,5.15,12,10.3,12,5.16-12,10.31-12,5.15,12,10.3,12,5.16-12,10.31-12,5.16,12,10.32,12" transform="translate(100.92 25.12)"/><path class="cls-3" d="M132.79,390.77c5.15,0,5.15,14,10.3,14s5.15-14,10.3-14,5.15,14,10.3,14,5.16-14,10.31-14,5.15,14,10.31,14,5.15-14,10.31-14,5.15,14,10.31,14" transform="translate(100.92 25.12)"/><path class="cls-3" d="M538.8,202.68c5.15,0,5.15,14,10.3,14s5.15-14,10.3-14,5.15,14,10.31,14,5.15-14,10.3-14,5.16,14,10.31,14,5.15-14,10.31-14,5.16,14,10.31,14" transform="translate(100.92 25.12)"/><path class="cls-3" d="M516.47,427.83c5.15,0,5.15,12,10.3,12s5.15-12,10.3-12,5.16,12,10.31,12,5.15-12,10.31-12,5.15,12,10.3,12,5.16-12,10.31-12,5.16,12,10.31,12" transform="translate(100.92 25.12)"/><polygon class="cls-4" points="256.15 141.02 251.6 136.46 256.15 131.91 253.72 129.48 249.17 134.03 244.62 129.48 242.19 131.91 246.74 136.46 242.19 141.02 244.62 143.45 249.17 138.89 253.72 143.45 256.15 141.02"/><polygon class="cls-4" points="232.96 452.78 228.41 448.22 232.96 443.67 230.53 441.24 225.98 445.8 221.43 441.24 219 443.67 223.55 448.22 219 452.78 221.43 455.21 225.98 450.65 230.53 455.21 232.96 452.78"/><polygon class="cls-4" points="730.02 213.16 725.46 208.6 730.02 204.05 727.59 201.62 723.03 206.18 718.48 201.62 716.05 204.05 720.6 208.6 716.05 213.16 718.48 215.59 723.03 211.03 727.59 215.59 730.02 213.16"/><polygon class="cls-3" points="695.98 88.97 695.98 85.14 692.16 85.14 692.16 84.29 695.98 84.29 695.98 80.47 696.83 80.47 696.83 84.29 700.66 84.29 700.66 85.14 696.83 85.14 696.83 88.97 695.98 88.97"/><polygon class="cls-3" points="256.26 54.77 256.26 50.94 252.44 50.94 252.44 50.09 256.26 50.09 256.26 46.27 257.11 46.27 257.11 50.09 260.93 50.09 260.93 50.94 257.11 50.94 257.11 54.77 256.26 54.77"/><polygon class="cls-3" points="153 499.28 153 495.46 149.18 495.46 149.18 494.61 153 494.61 153 490.78 153.85 490.78 153.85 494.61 157.68 494.61 157.68 495.46 153.85 495.46 153.85 499.28 153 499.28"/><polygon class="cls-3" points="737.21 337.82 737.21 333.99 733.38 333.99 733.38 333.14 737.21 333.14 737.21 329.32 738.06 329.32 738.06 333.14 741.88 333.14 741.88 333.99 738.06 333.99 738.06 337.82 737.21 337.82"/><polygon class="cls-3" points="831.68 508.73 831.68 504.9 827.86 504.9 827.86 504.05 831.68 504.05 831.68 500.23 832.53 500.23 832.53 504.05 836.36 504.05 836.36 504.9 832.53 504.9 832.53 508.73 831.68 508.73"/><polygon class="cls-3" points="121.81 239.05 121.81 235.23 117.99 235.23 117.99 234.37 121.81 234.37 121.81 230.55 122.67 230.55 122.67 234.37 126.49 234.37 126.49 235.23 122.67 235.23 122.67 239.05 121.81 239.05"/><polygon class="cls-4" points="796.15 401.25 791.59 396.69 796.15 392.14 793.72 389.71 789.16 394.26 784.61 389.71 782.18 392.14 786.73 396.69 782.18 401.25 784.61 403.68 789.16 399.12 793.72 403.68 796.15 401.25"/><circle class="cls-5" cx="234.14" cy="475.71" r="1.29"/><circle class="cls-5" cx="241.01" cy="475.71" r="1.29"/><circle class="cls-5" cx="247.88" cy="475.71" r="1.29"/><circle class="cls-5" cx="254.75" cy="475.71" r="1.29"/><circle class="cls-5" cx="261.62" cy="475.71" r="1.29"/><circle class="cls-5" cx="268.49" cy="475.71" r="1.29"/><circle class="cls-5" cx="275.36" cy="475.71" r="1.29"/><circle class="cls-5" cx="282.24" cy="475.71" r="1.29"/><circle class="cls-5" cx="289.11" cy="475.71" r="1.29"/><circle class="cls-5" cx="295.98" cy="475.71" r="1.29"/><circle class="cls-5" cx="302.85" cy="475.71" r="1.29"/><circle class="cls-5" cx="309.72" cy="475.71" r="1.29"/><circle class="cls-5" cx="316.59" cy="475.71" r="1.29"/><circle class="cls-5" cx="323.46" cy="475.71" r="1.29"/><circle class="cls-5" cx="234.14" cy="482.58" r="1.29"/><circle class="cls-5" cx="241.01" cy="482.58" r="1.29"/><circle class="cls-5" cx="247.88" cy="482.58" r="1.29"/><circle class="cls-5" cx="254.75" cy="482.58" r="1.29"/><circle class="cls-5" cx="261.62" cy="482.58" r="1.29"/><circle class="cls-5" cx="268.49" cy="482.58" r="1.29"/><circle class="cls-5" cx="275.36" cy="482.58" r="1.29"/><circle class="cls-5" cx="282.24" cy="482.58" r="1.29"/><circle class="cls-5" cx="289.11" cy="482.58" r="1.29"/><circle class="cls-5" cx="295.98" cy="482.58" r="1.29"/><circle class="cls-5" cx="302.85" cy="482.58" r="1.29"/><circle class="cls-5" cx="309.72" cy="482.58" r="1.29"/><circle class="cls-5" cx="316.59" cy="482.58" r="1.29"/><circle class="cls-5" cx="323.46" cy="482.58" r="1.29"/><circle class="cls-5" cx="234.14" cy="489.45" r="1.29"/><circle class="cls-5" cx="241.01" cy="489.45" r="1.29"/><circle class="cls-5" cx="247.88" cy="489.45" r="1.29"/><circle class="cls-5" cx="254.75" cy="489.45" r="1.29"/><circle class="cls-5" cx="261.62" cy="489.45" r="1.29"/><circle class="cls-5" cx="268.49" cy="489.45" r="1.29"/><circle class="cls-5" cx="275.36" cy="489.45" r="1.29"/><circle class="cls-5" cx="282.24" cy="489.45" r="1.29"/><circle class="cls-5" cx="289.11" cy="489.45" r="1.29"/><circle class="cls-5" cx="295.98" cy="489.45" r="1.29"/><circle class="cls-5" cx="302.85" cy="489.45" r="1.29"/><circle class="cls-5" cx="309.72" cy="489.45" r="1.29"/><circle class="cls-5" cx="316.59" cy="489.45" r="1.29"/><circle class="cls-5" cx="323.46" cy="489.45" r="1.29"/><circle class="cls-5" cx="234.14" cy="496.32" r="1.29"/><circle class="cls-5" cx="241.01" cy="496.32" r="1.29"/><circle class="cls-5" cx="247.88" cy="496.32" r="1.29"/><circle class="cls-5" cx="254.75" cy="496.32" r="1.29"/><circle class="cls-5" cx="261.62" cy="496.32" r="1.29"/><circle class="cls-5" cx="268.49" cy="496.32" r="1.29"/><circle class="cls-5" cx="275.36" cy="496.32" r="1.29"/><circle class="cls-5" cx="282.24" cy="496.32" r="1.29"/><circle class="cls-5" cx="289.11" cy="496.32" r="1.29"/><circle class="cls-5" cx="295.98" cy="496.32" r="1.29"/><circle class="cls-5" cx="302.85" cy="496.32" r="1.29"/><circle class="cls-5" cx="309.72" cy="496.32" r="1.29"/><circle class="cls-5" cx="316.59" cy="496.32" r="1.29"/><circle class="cls-5" cx="323.46" cy="496.32" r="1.29"/><circle class="cls-5" cx="234.14" cy="503.19" r="1.29"/><circle class="cls-5" cx="241.01" cy="503.19" r="1.29"/><circle class="cls-5" cx="247.88" cy="503.19" r="1.29"/><circle class="cls-5" cx="254.75" cy="503.19" r="1.29"/><circle class="cls-5" cx="261.62" cy="503.19" r="1.29"/><circle class="cls-5" cx="268.49" cy="503.19" r="1.29"/><circle class="cls-5" cx="275.36" cy="503.19" r="1.29"/><circle class="cls-5" cx="282.24" cy="503.19" r="1.29"/><circle class="cls-5" cx="289.11" cy="503.19" r="1.29"/><circle class="cls-5" cx="295.98" cy="503.19" r="1.29"/><circle class="cls-5" cx="302.85" cy="503.19" r="1.29"/><circle class="cls-5" cx="309.72" cy="503.19" r="1.29"/><circle class="cls-5" cx="316.59" cy="503.19" r="1.29"/><circle class="cls-5" cx="323.46" cy="503.19" r="1.29"/><circle class="cls-5" cx="234.14" cy="510.06" r="1.29"/><circle class="cls-5" cx="241.01" cy="510.06" r="1.29"/><circle class="cls-5" cx="247.88" cy="510.06" r="1.29"/><circle class="cls-5" cx="254.75" cy="510.06" r="1.29"/><circle class="cls-5" cx="261.62" cy="510.06" r="1.29"/><circle class="cls-5" cx="268.49" cy="510.06" r="1.29"/><circle class="cls-5" cx="275.36" cy="510.06" r="1.29"/><circle class="cls-5" cx="282.24" cy="510.06" r="1.29"/><circle class="cls-5" cx="289.11" cy="510.06" r="1.29"/><circle class="cls-5" cx="295.98" cy="510.06" r="1.29"/><circle class="cls-5" cx="302.85" cy="510.06" r="1.29"/><circle class="cls-5" cx="309.72" cy="510.06" r="1.29"/><circle class="cls-5" cx="316.59" cy="510.06" r="1.29"/><circle class="cls-5" cx="323.46" cy="510.06" r="1.29"/><circle class="cls-5" cx="234.14" cy="516.93" r="1.29"/><circle class="cls-5" cx="241.01" cy="516.93" r="1.29"/><circle class="cls-5" cx="247.88" cy="516.93" r="1.29"/><circle class="cls-5" cx="254.75" cy="516.93" r="1.29"/><circle class="cls-5" cx="261.62" cy="516.93" r="1.29"/><circle class="cls-5" cx="268.49" cy="516.93" r="1.29"/><circle class="cls-5" cx="275.36" cy="516.93" r="1.29"/><circle class="cls-5" cx="282.24" cy="516.93" r="1.29"/><circle class="cls-5" cx="289.11" cy="516.93" r="1.29"/><circle class="cls-5" cx="295.98" cy="516.93" r="1.29"/><circle class="cls-5" cx="302.85" cy="516.93" r="1.29"/><circle class="cls-5" cx="309.72" cy="516.93" r="1.29"/><circle class="cls-5" cx="316.59" cy="516.93" r="1.29"/><circle class="cls-5" cx="323.46" cy="516.93" r="1.29"/><circle class="cls-5" cx="234.14" cy="523.8" r="1.29"/><circle class="cls-5" cx="241.01" cy="523.8" r="1.29"/><circle class="cls-5" cx="247.88" cy="523.8" r="1.29"/><circle class="cls-5" cx="254.75" cy="523.8" r="1.29"/><circle class="cls-5" cx="261.62" cy="523.8" r="1.29"/><circle class="cls-5" cx="268.49" cy="523.8" r="1.29"/><circle class="cls-5" cx="275.36" cy="523.8" r="1.29"/><circle class="cls-5" cx="282.24" cy="523.8" r="1.29"/><circle class="cls-5" cx="289.11" cy="523.8" r="1.29"/><circle class="cls-5" cx="295.98" cy="523.8" r="1.29"/><circle class="cls-5" cx="302.85" cy="523.8" r="1.29"/><circle class="cls-5" cx="309.72" cy="523.8" r="1.29"/><circle class="cls-5" cx="316.59" cy="523.8" r="1.29"/><circle class="cls-5" cx="323.46" cy="523.8" r="1.29"/><circle class="cls-5" cx="234.14" cy="530.67" r="1.29"/><circle class="cls-5" cx="241.01" cy="530.67" r="1.29"/><circle class="cls-5" cx="247.88" cy="530.67" r="1.29"/><circle class="cls-5" cx="254.75" cy="530.67" r="1.29"/><circle class="cls-5" cx="261.62" cy="530.67" r="1.29"/><circle class="cls-5" cx="268.49" cy="530.67" r="1.29"/><circle class="cls-5" cx="275.36" cy="530.67" r="1.29"/><circle class="cls-5" cx="282.24" cy="530.67" r="1.29"/><circle class="cls-5" cx="289.11" cy="530.67" r="1.29"/><circle class="cls-5" cx="295.98" cy="530.67" r="1.29"/><circle class="cls-5" cx="302.85" cy="530.67" r="1.29"/><circle class="cls-5" cx="309.72" cy="530.67" r="1.29"/><circle class="cls-5" cx="316.59" cy="530.67" r="1.29"/><circle class="cls-5" cx="323.46" cy="530.67" r="1.29"/><circle class="cls-4" cx="615.25" cy="119.28" r="1.29"/><circle class="cls-4" cx="622.12" cy="119.28" r="1.29"/><circle class="cls-4" cx="628.99" cy="119.28" r="1.29"/><circle class="cls-4" cx="635.86" cy="119.28" r="1.29"/><circle class="cls-4" cx="642.73" cy="119.28" r="1.29"/><circle class="cls-4" cx="649.6" cy="119.28" r="1.29"/><circle class="cls-4" cx="656.47" cy="119.28" r="1.29"/><circle class="cls-4" cx="663.34" cy="119.28" r="1.29"/><circle class="cls-4" cx="670.21" cy="119.28" r="1.29"/><circle class="cls-4" cx="677.08" cy="119.28" r="1.29"/><circle class="cls-4" cx="683.95" cy="119.28" r="1.29"/><circle class="cls-4" cx="690.83" cy="119.28" r="1.29"/><circle class="cls-4" cx="697.7" cy="119.28" r="1.29"/><circle class="cls-4" cx="704.57" cy="119.28" r="1.29"/><circle class="cls-4" cx="711.44" cy="119.28" r="1.29"/><circle class="cls-4" cx="718.31" cy="119.28" r="1.29"/><circle class="cls-4" cx="725.18" cy="119.28" r="1.29"/><circle class="cls-4" cx="732.05" cy="119.28" r="1.29"/><circle class="cls-4" cx="738.92" cy="119.28" r="1.29"/><circle class="cls-4" cx="745.79" cy="119.28" r="1.29"/><circle class="cls-4" cx="752.66" cy="119.28" r="1.29"/><circle class="cls-4" cx="759.53" cy="119.28" r="1.29"/><circle class="cls-4" cx="766.4" cy="119.28" r="1.29"/><circle class="cls-4" cx="773.27" cy="119.28" r="1.29"/><circle class="cls-4" cx="780.15" cy="119.28" r="1.29"/><circle class="cls-4" cx="615.25" cy="126.16" r="1.29"/><circle class="cls-4" cx="622.12" cy="126.16" r="1.29"/><circle class="cls-4" cx="628.99" cy="126.16" r="1.29"/><circle class="cls-4" cx="635.86" cy="126.16" r="1.29"/><circle class="cls-4" cx="642.73" cy="126.16" r="1.29"/><circle class="cls-4" cx="649.6" cy="126.16" r="1.29"/><circle class="cls-4" cx="656.47" cy="126.16" r="1.29"/><circle class="cls-4" cx="663.34" cy="126.16" r="1.29"/><circle class="cls-4" cx="670.21" cy="126.16" r="1.29"/><circle class="cls-4" cx="677.08" cy="126.16" r="1.29"/><circle class="cls-4" cx="683.95" cy="126.16" r="1.29"/><circle class="cls-4" cx="690.83" cy="126.16" r="1.29"/><circle class="cls-4" cx="697.7" cy="126.16" r="1.29"/><circle class="cls-4" cx="704.57" cy="126.16" r="1.29"/><circle class="cls-4" cx="711.44" cy="126.16" r="1.29"/><circle class="cls-4" cx="718.31" cy="126.16" r="1.29"/><circle class="cls-4" cx="725.18" cy="126.16" r="1.29"/><circle class="cls-4" cx="732.05" cy="126.16" r="1.29"/><circle class="cls-4" cx="738.92" cy="126.16" r="1.29"/><circle class="cls-4" cx="745.79" cy="126.16" r="1.29"/><circle class="cls-4" cx="752.66" cy="126.16" r="1.29"/><circle class="cls-4" cx="759.53" cy="126.16" r="1.29"/><circle class="cls-4" cx="766.4" cy="126.16" r="1.29"/><circle class="cls-4" cx="773.27" cy="126.16" r="1.29"/><circle class="cls-4" cx="780.15" cy="126.16" r="1.29"/><circle class="cls-4" cx="615.25" cy="133.03" r="1.29"/><circle class="cls-4" cx="622.12" cy="133.03" r="1.29"/><circle class="cls-4" cx="628.99" cy="133.03" r="1.29"/><circle class="cls-4" cx="635.86" cy="133.03" r="1.29"/><circle class="cls-4" cx="642.73" cy="133.03" r="1.29"/><circle class="cls-4" cx="649.6" cy="133.03" r="1.29"/><circle class="cls-4" cx="656.47" cy="133.03" r="1.29"/><circle class="cls-4" cx="663.34" cy="133.03" r="1.29"/><circle class="cls-4" cx="670.21" cy="133.03" r="1.29"/><circle class="cls-4" cx="677.08" cy="133.03" r="1.29"/><circle class="cls-4" cx="683.95" cy="133.03" r="1.29"/><circle class="cls-4" cx="690.83" cy="133.03" r="1.29"/><circle class="cls-4" cx="697.7" cy="133.03" r="1.29"/><circle class="cls-4" cx="704.57" cy="133.03" r="1.29"/><circle class="cls-4" cx="711.44" cy="133.03" r="1.29"/><circle class="cls-4" cx="718.31" cy="133.03" r="1.29"/><circle class="cls-4" cx="725.18" cy="133.03" r="1.29"/><circle class="cls-4" cx="732.05" cy="133.03" r="1.29"/><circle class="cls-4" cx="738.92" cy="133.03" r="1.29"/><circle class="cls-4" cx="745.79" cy="133.03" r="1.29"/><circle class="cls-4" cx="752.66" cy="133.03" r="1.29"/><circle class="cls-4" cx="759.53" cy="133.03" r="1.29"/><circle class="cls-4" cx="766.4" cy="133.03" r="1.29"/><circle class="cls-4" cx="773.27" cy="133.03" r="1.29"/><circle class="cls-4" cx="780.15" cy="133.03" r="1.29"/><circle class="cls-4" cx="615.25" cy="139.9" r="1.29"/><circle class="cls-4" cx="622.12" cy="139.9" r="1.29"/><circle class="cls-4" cx="628.99" cy="139.9" r="1.29"/><circle class="cls-4" cx="635.86" cy="139.9" r="1.29"/><circle class="cls-4" cx="642.73" cy="139.9" r="1.29"/><circle class="cls-4" cx="649.6" cy="139.9" r="1.29"/><circle class="cls-4" cx="656.47" cy="139.9" r="1.29"/><circle class="cls-4" cx="663.34" cy="139.9" r="1.29"/><circle class="cls-4" cx="670.21" cy="139.9" r="1.29"/><circle class="cls-4" cx="677.08" cy="139.9" r="1.29"/><circle class="cls-4" cx="683.95" cy="139.9" r="1.29"/><circle class="cls-4" cx="690.83" cy="139.9" r="1.29"/><circle class="cls-4" cx="697.7" cy="139.9" r="1.29"/><circle class="cls-4" cx="704.57" cy="139.9" r="1.29"/><circle class="cls-4" cx="711.44" cy="139.9" r="1.29"/><circle class="cls-4" cx="718.31" cy="139.9" r="1.29"/><circle class="cls-4" cx="725.18" cy="139.9" r="1.29"/><circle class="cls-4" cx="732.05" cy="139.9" r="1.29"/><circle class="cls-4" cx="738.92" cy="139.9" r="1.29"/><circle class="cls-4" cx="745.79" cy="139.9" r="1.29"/><circle class="cls-4" cx="752.66" cy="139.9" r="1.29"/><circle class="cls-4" cx="759.53" cy="139.9" r="1.29"/><circle class="cls-4" cx="766.4" cy="139.9" r="1.29"/><circle class="cls-4" cx="773.27" cy="139.9" r="1.29"/><circle class="cls-4" cx="780.15" cy="139.9" r="1.29"/><circle class="cls-4" cx="615.25" cy="146.77" r="1.29"/><circle class="cls-4" cx="622.12" cy="146.77" r="1.29"/><circle class="cls-4" cx="628.99" cy="146.77" r="1.29"/><circle class="cls-4" cx="635.86" cy="146.77" r="1.29"/><circle class="cls-4" cx="642.73" cy="146.77" r="1.29"/><circle class="cls-4" cx="649.6" cy="146.77" r="1.29"/><circle class="cls-4" cx="656.47" cy="146.77" r="1.29"/><circle class="cls-4" cx="663.34" cy="146.77" r="1.29"/><circle class="cls-4" cx="670.21" cy="146.77" r="1.29"/><circle class="cls-4" cx="677.08" cy="146.77" r="1.29"/><circle class="cls-4" cx="683.95" cy="146.77" r="1.29"/><circle class="cls-4" cx="690.83" cy="146.77" r="1.29"/><circle class="cls-4" cx="697.7" cy="146.77" r="1.29"/><circle class="cls-4" cx="704.57" cy="146.77" r="1.29"/><circle class="cls-4" cx="711.44" cy="146.77" r="1.29"/><circle class="cls-4" cx="718.31" cy="146.77" r="1.29"/><circle class="cls-4" cx="725.18" cy="146.77" r="1.29"/><circle class="cls-4" cx="732.05" cy="146.77" r="1.29"/><circle class="cls-4" cx="738.92" cy="146.77" r="1.29"/><circle class="cls-4" cx="745.79" cy="146.77" r="1.29"/><circle class="cls-4" cx="752.66" cy="146.77" r="1.29"/><circle class="cls-4" cx="759.53" cy="146.77" r="1.29"/><circle class="cls-4" cx="766.4" cy="146.77" r="1.29"/><circle class="cls-4" cx="773.27" cy="146.77" r="1.29"/><circle class="cls-4" cx="780.15" cy="146.77" r="1.29"/><circle class="cls-4" cx="615.25" cy="153.64" r="1.29"/><circle class="cls-4" cx="622.12" cy="153.64" r="1.29"/><circle class="cls-4" cx="628.99" cy="153.64" r="1.29"/><circle class="cls-4" cx="635.86" cy="153.64" r="1.29"/><circle class="cls-4" cx="642.73" cy="153.64" r="1.29"/><circle class="cls-4" cx="649.6" cy="153.64" r="1.29"/><circle class="cls-4" cx="656.47" cy="153.64" r="1.29"/><circle class="cls-4" cx="663.34" cy="153.64" r="1.29"/><circle class="cls-4" cx="670.21" cy="153.64" r="1.29"/><circle class="cls-4" cx="677.08" cy="153.64" r="1.29"/><circle class="cls-4" cx="683.95" cy="153.64" r="1.29"/><circle class="cls-4" cx="690.83" cy="153.64" r="1.29"/><circle class="cls-4" cx="697.7" cy="153.64" r="1.29"/><circle class="cls-4" cx="704.57" cy="153.64" r="1.29"/><circle class="cls-4" cx="711.44" cy="153.64" r="1.29"/><circle class="cls-4" cx="718.31" cy="153.64" r="1.29"/><circle class="cls-4" cx="725.18" cy="153.64" r="1.29"/><circle class="cls-4" cx="732.05" cy="153.64" r="1.29"/><circle class="cls-4" cx="738.92" cy="153.64" r="1.29"/><circle class="cls-4" cx="745.79" cy="153.64" r="1.29"/><circle class="cls-4" cx="752.66" cy="153.64" r="1.29"/><circle class="cls-4" cx="759.53" cy="153.64" r="1.29"/><circle class="cls-4" cx="766.4" cy="153.64" r="1.29"/><circle class="cls-4" cx="773.27" cy="153.64" r="1.29"/><circle class="cls-4" cx="780.15" cy="153.64" r="1.29"/><circle class="cls-4" cx="615.25" cy="160.51" r="1.29"/><circle class="cls-4" cx="622.12" cy="160.51" r="1.29"/><circle class="cls-4" cx="628.99" cy="160.51" r="1.29"/><circle class="cls-4" cx="635.86" cy="160.51" r="1.29"/><circle class="cls-4" cx="642.73" cy="160.51" r="1.29"/><circle class="cls-4" cx="649.6" cy="160.51" r="1.29"/><circle class="cls-4" cx="656.47" cy="160.51" r="1.29"/><circle class="cls-4" cx="663.34" cy="160.51" r="1.29"/><circle class="cls-4" cx="670.21" cy="160.51" r="1.29"/><circle class="cls-4" cx="677.08" cy="160.51" r="1.29"/><circle class="cls-4" cx="683.95" cy="160.51" r="1.29"/><circle class="cls-4" cx="690.83" cy="160.51" r="1.29"/><circle class="cls-4" cx="697.7" cy="160.51" r="1.29"/><circle class="cls-4" cx="704.57" cy="160.51" r="1.29"/><circle class="cls-4" cx="711.44" cy="160.51" r="1.29"/><circle class="cls-4" cx="718.31" cy="160.51" r="1.29"/><circle class="cls-4" cx="725.18" cy="160.51" r="1.29"/><circle class="cls-4" cx="732.05" cy="160.51" r="1.29"/><circle class="cls-4" cx="738.92" cy="160.51" r="1.29"/><circle class="cls-4" cx="745.79" cy="160.51" r="1.29"/><circle class="cls-4" cx="752.66" cy="160.51" r="1.29"/><circle class="cls-4" cx="759.53" cy="160.51" r="1.29"/><circle class="cls-4" cx="766.4" cy="160.51" r="1.29"/><circle class="cls-4" cx="773.27" cy="160.51" r="1.29"/><circle class="cls-4" cx="780.15" cy="160.51" r="1.29"/><circle class="cls-4" cx="615.25" cy="167.38" r="1.29"/><circle class="cls-4" cx="622.12" cy="167.38" r="1.29"/><circle class="cls-4" cx="628.99" cy="167.38" r="1.29"/><circle class="cls-4" cx="635.86" cy="167.38" r="1.29"/><circle class="cls-4" cx="642.73" cy="167.38" r="1.29"/><circle class="cls-4" cx="649.6" cy="167.38" r="1.29"/><circle class="cls-4" cx="656.47" cy="167.38" r="1.29"/><circle class="cls-4" cx="663.34" cy="167.38" r="1.29"/><circle class="cls-4" cx="670.21" cy="167.38" r="1.29"/><circle class="cls-4" cx="677.08" cy="167.38" r="1.29"/><circle class="cls-4" cx="683.95" cy="167.38" r="1.29"/><circle class="cls-4" cx="690.83" cy="167.38" r="1.29"/><circle class="cls-4" cx="697.7" cy="167.38" r="1.29"/><circle class="cls-4" cx="704.57" cy="167.38" r="1.29"/><circle class="cls-4" cx="711.44" cy="167.38" r="1.29"/><circle class="cls-4" cx="718.31" cy="167.38" r="1.29"/><circle class="cls-4" cx="725.18" cy="167.38" r="1.29"/><circle class="cls-4" cx="732.05" cy="167.38" r="1.29"/><circle class="cls-4" cx="738.92" cy="167.38" r="1.29"/><circle class="cls-4" cx="745.79" cy="167.38" r="1.29"/><circle class="cls-4" cx="752.66" cy="167.38" r="1.29"/><circle class="cls-4" cx="759.53" cy="167.38" r="1.29"/><circle class="cls-4" cx="766.4" cy="167.38" r="1.29"/><circle class="cls-4" cx="773.27" cy="167.38" r="1.29"/><circle class="cls-4" cx="780.15" cy="167.38" r="1.29"/><circle class="cls-4" cx="615.25" cy="174.25" r="1.29"/><circle class="cls-4" cx="622.12" cy="174.25" r="1.29"/><circle class="cls-4" cx="628.99" cy="174.25" r="1.29"/><circle class="cls-4" cx="635.86" cy="174.25" r="1.29"/><circle class="cls-4" cx="642.73" cy="174.25" r="1.29"/><circle class="cls-4" cx="649.6" cy="174.25" r="1.29"/><circle class="cls-4" cx="656.47" cy="174.25" r="1.29"/><circle class="cls-4" cx="663.34" cy="174.25" r="1.29"/><circle class="cls-4" cx="670.21" cy="174.25" r="1.29"/><circle class="cls-4" cx="677.08" cy="174.25" r="1.29"/><circle class="cls-4" cx="683.95" cy="174.25" r="1.29"/><circle class="cls-4" cx="690.83" cy="174.25" r="1.29"/><circle class="cls-4" cx="697.7" cy="174.25" r="1.29"/><circle class="cls-4" cx="704.57" cy="174.25" r="1.29"/><circle class="cls-4" cx="711.44" cy="174.25" r="1.29"/><circle class="cls-4" cx="718.31" cy="174.25" r="1.29"/><circle class="cls-4" cx="725.18" cy="174.25" r="1.29"/><circle class="cls-4" cx="732.05" cy="174.25" r="1.29"/><circle class="cls-4" cx="738.92" cy="174.25" r="1.29"/><circle class="cls-4" cx="745.79" cy="174.25" r="1.29"/><circle class="cls-4" cx="752.66" cy="174.25" r="1.29"/><circle class="cls-4" cx="759.53" cy="174.25" r="1.29"/><circle class="cls-4" cx="766.4" cy="174.25" r="1.29"/><circle class="cls-4" cx="773.27" cy="174.25" r="1.29"/><circle class="cls-4" cx="780.15" cy="174.25" r="1.29"/><polygon class="cls-4" points="234.21 342.26 219.46 367.82 248.97 367.82 234.21 342.26"/><polygon class="cls-4" points="685.24 334.43 648.05 398.84 722.43 398.84 685.24 334.43"/><path class="cls-6" d="M733.33,341.94a58.83,58.83,0,0,1,0-117.66" transform="translate(100.92 25.12)"/><path class="cls-6" d="M273.42,59.59a58.83,58.83,0,1,1-117.66,0" transform="translate(100.92 25.12)"/><circle class="cls-3" cx="836.87" cy="308.66" r="24.91"/><polygon class="cls-4" points="1.89 412.58 0 412.55 13.88 391.69 15.77 391.71 1.89 412.58"/><polygon class="cls-4" points="12.29 412.74 10.4 412.71 24.27 391.85 26.16 391.88 12.29 412.74"/><polygon class="cls-4" points="22.68 412.89 20.79 412.87 34.67 392 36.56 392.03 22.68 412.89"/><polygon class="cls-4" points="33.08 413.05 31.19 413.02 45.06 392.16 46.95 392.19 33.08 413.05"/><polygon class="cls-4" points="43.47 413.21 41.58 413.18 55.46 392.32 57.35 392.35 43.47 413.21"/><polygon class="cls-4" points="53.87 413.37 51.98 413.34 65.86 392.48 67.75 392.51 53.87 413.37"/><polygon class="cls-4" points="64.27 413.53 62.38 413.5 76.25 392.64 78.14 392.67 64.27 413.53"/><polygon class="cls-4" points="74.66 413.69 72.77 413.66 86.65 392.8 88.54 392.83 74.66 413.69"/><polygon class="cls-4" points="85.06 413.85 83.17 413.82 97.04 392.96 98.93 392.99 85.06 413.85"/><polygon class="cls-4" points="95.45 414.01 93.56 413.98 107.44 393.12 109.33 393.15 95.45 414.01"/><polygon class="cls-4" points="105.85 414.17 103.96 414.14 117.83 393.28 119.73 393.31 105.85 414.17"/><polygon class="cls-4" points="116.25 414.33 114.36 414.3 128.23 393.44 130.12 393.47 116.25 414.33"/><polygon class="cls-4" points="126.64 414.49 124.75 414.46 138.63 393.6 140.52 393.63 126.64 414.49"/><polygon class="cls-4" points="137.04 414.65 135.15 414.62 149.02 393.76 150.91 393.79 137.04 414.65"/><polygon class="cls-4" points="147.44 414.81 145.54 414.78 159.42 393.92 161.31 393.94 147.44 414.81"/><polygon class="cls-4" points="157.83 414.96 155.94 414.94 169.82 394.07 171.71 394.1 157.83 414.96"/><polygon class="cls-4" points="168.23 415.12 166.34 415.09 180.21 394.23 182.1 394.26 168.23 415.12"/><polygon class="cls-4" points="178.62 415.28 176.73 415.25 190.61 394.39 192.5 394.42 178.62 415.28"/><polygon class="cls-4" points="189.02 415.44 187.13 415.41 201 394.55 202.89 394.58 189.02 415.44"/><polygon class="cls-4" points="512.68 527.66 510.79 527.63 524.67 506.77 526.56 506.8 512.68 527.66"/><polygon class="cls-4" points="523.08 527.82 521.19 527.79 535.06 506.93 536.95 506.96 523.08 527.82"/><polygon class="cls-4" points="533.48 527.98 531.59 527.95 545.46 507.09 547.35 507.12 533.48 527.98"/><polygon class="cls-4" points="543.87 528.14 541.98 528.11 555.86 507.25 557.75 507.28 543.87 528.14"/><polygon class="cls-4" points="554.27 528.3 552.38 528.27 566.25 507.41 568.14 507.44 554.27 528.3"/><polygon class="cls-4" points="564.66 528.46 562.77 528.43 576.65 507.57 578.54 507.6 564.66 528.46"/><polygon class="cls-4" points="575.06 528.62 573.17 528.59 587.04 507.73 588.93 507.76 575.06 528.62"/><polygon class="cls-4" points="585.46 528.78 583.57 528.75 597.44 507.89 599.33 507.92 585.46 528.78"/><polygon class="cls-4" points="595.85 528.94 593.96 528.91 607.84 508.05 609.73 508.07 595.85 528.94"/><polygon class="cls-4" points="606.25 529.1 604.36 529.07 618.23 508.2 620.12 508.23 606.25 529.1"/><polygon class="cls-4" points="616.64 529.25 614.75 529.23 628.63 508.37 630.52 508.39 616.64 529.25"/><polygon class="cls-4" points="627.04 529.41 625.15 529.38 639.02 508.52 640.91 508.55 627.04 529.41"/><polygon class="cls-4" points="637.44 529.57 635.55 529.54 649.42 508.68 651.31 508.71 637.44 529.57"/><polygon class="cls-4" points="647.83 529.73 645.94 529.7 659.82 508.84 661.71 508.87 647.83 529.73"/><polygon class="cls-4" points="658.23 529.89 656.34 529.86 670.21 509 672.1 509.03 658.23 529.89"/><polygon class="cls-4" points="668.62 530.05 666.73 530.02 680.61 509.16 682.5 509.19 668.62 530.05"/><polygon class="cls-4" points="679.02 530.21 677.13 530.18 691 509.32 692.89 509.35 679.02 530.21"/><polygon class="cls-4" points="689.42 530.37 687.53 530.34 701.4 509.48 703.29 509.51 689.42 530.37"/><polygon class="cls-4" points="699.81 530.53 697.92 530.5 711.8 509.64 713.69 509.67 699.81 530.53"/><polygon class="cls-4" points="283.11 35.57 281.22 35.54 295.1 14.68 296.99 14.71 283.11 35.57"/><polygon class="cls-4" points="293.51 35.73 291.62 35.7 305.49 14.84 307.38 14.87 293.51 35.73"/><polygon class="cls-4" points="303.91 35.88 302.01 35.86 315.89 14.99 317.78 15.02 303.91 35.88"/><polygon class="cls-4" points="314.3 36.04 312.41 36.02 326.29 15.15 328.18 15.18 314.3 36.04"/><polygon class="cls-4" points="324.7 36.2 322.81 36.17 336.68 15.31 338.57 15.34 324.7 36.2"/><polygon class="cls-4" points="335.09 36.36 333.2 36.33 347.08 15.47 348.97 15.5 335.09 36.36"/><polygon class="cls-4" points="345.49 36.52 343.6 36.49 357.47 15.63 359.37 15.66 345.49 36.52"/><polygon class="cls-4" points="355.89 36.68 354 36.65 367.87 15.79 369.76 15.82 355.89 36.68"/><polygon class="cls-4" points="366.28 36.84 364.39 36.81 378.27 15.95 380.16 15.98 366.28 36.84"/><polygon class="cls-4" points="376.68 37 374.79 36.97 388.66 16.11 390.55 16.14 376.68 37"/><circle class="cls-4" cx="315.52" cy="89.65" r="21.47"/><circle class="cls-5" cx="151.74" cy="246.96" r="1.12"/><circle class="cls-5" cx="163.68" cy="246.96" r="1.12"/><circle class="cls-5" cx="175.62" cy="246.96" r="1.12"/><circle class="cls-5" cx="187.56" cy="246.96" r="1.12"/><circle class="cls-5" cx="199.5" cy="246.96" r="1.12"/><circle class="cls-5" cx="211.45" cy="246.96" r="1.12"/><circle class="cls-5" cx="223.39" cy="246.96" r="1.12"/><circle class="cls-5" cx="235.33" cy="246.96" r="1.12"/><circle class="cls-5" cx="247.27" cy="246.96" r="1.12"/><circle class="cls-5" cx="259.21" cy="246.96" r="1.12"/><circle class="cls-5" cx="136.06" cy="261.14" r="1.12"/><circle class="cls-5" cx="148" cy="261.14" r="1.12"/><circle class="cls-5" cx="159.95" cy="261.14" r="1.12"/><circle class="cls-5" cx="171.89" cy="261.14" r="1.12"/><circle class="cls-5" cx="183.83" cy="261.14" r="1.12"/><circle class="cls-5" cx="195.77" cy="261.14" r="1.12"/><circle class="cls-5" cx="207.71" cy="261.14" r="1.12"/><circle class="cls-5" cx="219.66" cy="261.14" r="1.12"/><circle class="cls-5" cx="231.6" cy="261.14" r="1.12"/><circle class="cls-5" cx="243.54" cy="261.14" r="1.12"/><circle class="cls-5" cx="151.74" cy="275.32" r="1.12"/><circle class="cls-5" cx="163.68" cy="275.32" r="1.12"/><circle class="cls-5" cx="175.62" cy="275.32" r="1.12"/><circle class="cls-5" cx="187.56" cy="275.32" r="1.12"/><circle class="cls-5" cx="199.5" cy="275.32" r="1.12"/><circle class="cls-5" cx="211.45" cy="275.32" r="1.12"/><circle class="cls-5" cx="223.39" cy="275.32" r="1.12"/><circle class="cls-5" cx="235.33" cy="275.32" r="1.12"/><circle class="cls-5" cx="247.27" cy="275.32" r="1.12"/><circle class="cls-5" cx="259.21" cy="275.32" r="1.12"/><circle class="cls-5" cx="136.06" cy="289.51" r="1.12"/><circle class="cls-5" cx="148" cy="289.51" r="1.12"/><circle class="cls-5" cx="159.95" cy="289.51" r="1.12"/><circle class="cls-5" cx="171.89" cy="289.51" r="1.12"/><circle class="cls-5" cx="183.83" cy="289.51" r="1.12"/><circle class="cls-5" cx="195.77" cy="289.51" r="1.12"/><circle class="cls-5" cx="207.71" cy="289.51" r="1.12"/><circle class="cls-5" cx="219.66" cy="289.51" r="1.12"/><circle class="cls-5" cx="231.6" cy="289.51" r="1.12"/><circle class="cls-5" cx="243.54" cy="289.51" r="1.12"/><g class="cls-7"><path class="cls-5" d="M792.76,197.8H707.24a1,1,0,0,1,0-2h85.52a1,1,0,0,1,0,2Z" transform="translate(100.92 25.12)"/></g><g class="cls-7"><path class="cls-5" d="M488.18,41H434.86a1,1,0,0,1,0-2h53.32a1,1,0,1,1,0,2Z" transform="translate(100.92 25.12)"/></g><g class="cls-7"><path class="cls-5" d="M65.14,423.45H-20.38a1,1,0,0,1-1-1,1,1,0,0,1,1-1H65.14a1,1,0,0,1,0,2Z" transform="translate(100.92 25.12)"/></g><path class="cls-4" d="M532.44,25.12h-58l29-50.24Zm-54.73-1.89h51.45L503.43-21.33Z" transform="translate(100.92 25.12)"/></g></g></g></svg>