<svg xmlns="http://www.w3.org/2000/svg" xmlns:xlink="http://www.w3.org/1999/xlink" viewBox="0 0 1611 1425"><defs><style>.cls-1,.cls-4,.cls-5,.cls-6,.cls-7,.cls-8{fill:none;}.cls-2{clip-path:url(#clip-path);}.cls-3{fill:#060039;}.cls-4{stroke:#44ab96;}.cls-4,.cls-5,.cls-6,.cls-7,.cls-8{stroke-linecap:round;stroke-linejoin:round;stroke-width:13px;}.cls-5{stroke:#e53855;}.cls-6{stroke:#ffb017;}.cls-7{stroke:#da774a;}.cls-8{stroke:#4484ab;}</style><clipPath id="clip-path" transform="translate(4.5 111.5)"><rect id="Shape" class="cls-1" width="1600" height="1201"/></clipPath></defs><g id="Layer_2" data-name="Layer 2"><g id="Background"><g id="Taieri"><g class="cls-2"><g id="Patterns"><rect id="Background-2" data-name="Background" class="cls-3" x="4.5" y="111.5" width="1600" height="1201"/><g id="Taieri-2" data-name="Taieri"><g id="Shape-2" data-name="Shape"><path class="cls-4" d="M1600,894c0,32-25.74,58-57.5,58s-57.5-26-57.5-58" transform="translate(4.5 111.5)"/><path class="cls-5" d="M1600,50c-39.77,0-72-32.46-72-72.5S1560.23-95,1600-95" transform="translate(4.5 111.5)"/><path class="cls-4" d="M562-36.09A60,60,0,0,0,622,24a60,60,0,0,0,60-60.09V-104" transform="translate(4.5 111.5)"/><path class="cls-6" d="M137.24,1307C62.55,1307,2,1246.79,2,1172.5S62.55,1038,137.24,1038H261" transform="translate(4.5 111.5)"/><path class="cls-4" d="M129,1215c-24.84,0-45-19.47-45-43.5s20.14-43.5,45-43.5h48" transform="translate(4.5 111.5)"/><path class="cls-7" d="M1600,357V188.68a60,60,0,0,0-120,0v26" transform="translate(4.5 111.5)"/><path class="cls-7" d="M673,860.54H493.56c-45.23,0-81.89,36.47-81.89,81.46s36.66,81.46,81.89,81.46h74.06M366.84,1307h-10.7a57.21,57.21,0,0,1,0-114.42H483.72a84.48,84.48,0,0,0,84.43-84.53M389.76,483v64.29c0,78.3,63.41,141.78,141.62,141.78h56.41A85.26,85.26,0,0,1,673,774.38" transform="translate(4.5 111.5)"/><circle class="cls-4" cx="592.5" cy="399.5" r="40"/><ellipse class="cls-5" cx="702.5" cy="1202" rx="58" ry="57.5"/><circle class="cls-4" cx="188.5" cy="263.5" r="63"/><path class="cls-6" d="M184.5,289C262.1,289,325,227,325,150.5S262.1,12,184.5,12,44,74,44,150.5" transform="translate(4.5 111.5)"/><path class="cls-4" d="M1311.21,1119.46C1289.86,1199.27,1336,1281,1414.35,1302s159.09-26.65,180.44-106.47S1570,1034,1491.65,1013" transform="translate(4.5 111.5)"/><path class="cls-7" d="M481.83,1108c-85,0-153.83-75.43-153.83-168.49a179.74,179.74,0,0,1,22.7-88.14M587,770H482.2c-33.53,0-64.56,11.6-89.84,31.3" transform="translate(4.5 111.5)"/><path class="cls-4" d="M328.5,309A57.5,57.5,0,1,0,386,366.5V309" transform="translate(4.5 111.5)"/><path class="cls-5" d="M346-27.5C346,14.75,380,49,422,49s76-34.25,76-76.5S464-104,422-104H346" transform="translate(4.5 111.5)"/><path class="cls-4" d="M71.5,761.58C34.77,761.58,5,732.13,5,695.79S34.77,630,71.5,630,138,659.46,138,695.79V897" transform="translate(4.5 111.5)"/><path class="cls-4" d="M1462,765c0,33.69,26.87,61,60,61s60-27.31,60-61-26.86-61-60-61H1321" transform="translate(4.5 111.5)"/><path class="cls-8" d="M966,34.79c-35.35,0-64,28.25-64,63.11S930.65,161,966,161s64-28.25,64-63.1V-105" transform="translate(4.5 111.5)"/><path class="cls-4" d="M914.92,1249c0-32,25.76-58,57.54-58s57.54,26,57.54,58-25.76,58-57.54,58H881" transform="translate(4.5 111.5)"/><path class="cls-7" d="M1089.5,457.58a57.21,57.21,0,1,1-57.5,57.21V301" transform="translate(4.5 111.5)"/><path class="cls-7" d="M62.5,463.71C30.74,463.71,5,489.07,5,520.35S30.74,577,62.5,577,120,551.64,120,520.35V289" transform="translate(4.5 111.5)"/><path class="cls-6" d="M688.7,289c0-56.88-45.37-103-101.35-103S486,232.12,486,289s45.38,103,101.35,103H853" transform="translate(4.5 111.5)"/><path class="cls-4" d="M1498.64,622c56,0,101.36-46.12,101.36-103s-45.37-103-101.36-103H1233" transform="translate(4.5 111.5)"/><path class="cls-7" d="M1107,70.5c0-53.3,42.74-96.5,95.46-96.5h98.08c52.72,0,95.46,43.2,95.46,96.5h0c0,53.3-42.74,96.5-95.46,96.5h-98.08c-52.72,0-95.46-43.2-95.46-96.5Z" transform="translate(4.5 111.5)"/><path class="cls-6" d="M266.5,766A59.45,59.45,0,0,1,207,706.6V537.4A59.45,59.45,0,0,1,266.5,478h0A59.45,59.45,0,0,1,326,537.4V706.6A59.45,59.45,0,0,1,266.5,766Z" transform="translate(4.5 111.5)"/><path class="cls-5" d="M828,690.5V601.17A46.34,46.34,0,0,1,874.5,555h0A46.34,46.34,0,0,1,921,601.17V779.83A46.34,46.34,0,0,1,874.5,826h0A46.34,46.34,0,0,1,828,779.83V758.25" transform="translate(4.5 111.5)"/><path class="cls-6" d="M914,212.93v7.79A80.39,80.39,0,0,1,833.5,301h0A80.39,80.39,0,0,1,753,220.72V-23.72A80.39,80.39,0,0,1,833.5-104h0A80.39,80.39,0,0,1,914-23.72v2.4" transform="translate(4.5 111.5)"/><path class="cls-6" d="M71.75,847H66.94A62,62,0,0,0,5,909H5a62,62,0,0,0,61.94,62H210.06A62,62,0,0,0,272,909h0a62,62,0,0,0-61.94-62h-4.81" transform="translate(4.5 111.5)"/><path class="cls-4" d="M751,555V786.64C751,855.87,807.64,912,877.5,912S1004,855.87,1004,786.64V731.91" transform="translate(4.5 111.5)"/><path class="cls-4" d="M497,947H704.8c79.09,0,143.2,64.47,143.2,144s-64.11,144-143.2,144H642.29" transform="translate(4.5 111.5)"/><path class="cls-8" d="M586,596H536.81a60,60,0,0,1,0-120h98.38A59.9,59.9,0,0,1,695,536v5.33A54.59,54.59,0,0,1,640.5,596" transform="translate(4.5 111.5)"/><path class="cls-4" d="M1089.5,367h56.18c37.73,0,68.32-28.88,68.32-64.5s-30.59-64.5-68.32-64.5H1033.32C995.59,238,965,266.88,965,302.5" transform="translate(4.5 111.5)"/><path class="cls-4" d="M675,98H540.32C455.09,98,386,167.4,386,253" transform="translate(4.5 111.5)"/><path class="cls-5" d="M1449.5,1101.84c31.76,0,57.5,25.56,57.5,57.08s-25.74,57.08-57.5,57.08-57.5-25.56-57.5-57.08V787" transform="translate(4.5 111.5)"/><path class="cls-4" d="M1019,1139c0-58.54,46.85-106,104.63-106H1308" transform="translate(4.5 111.5)"/><path class="cls-8" d="M747,476h98.37C911.44,476,965,422.27,965,356" transform="translate(4.5 111.5)"/><path class="cls-8" d="M1321,789v53.76A98.27,98.27,0,0,1,1222.71,941H1146" transform="translate(4.5 111.5)"/><path class="cls-7" d="M1507,521h-84c-60.75,0-110,49.7-110,111" transform="translate(4.5 111.5)"/><path class="cls-4" d="M218,1307v-91.12c0-52.46,41-96.41,96-107.88" transform="translate(4.5 111.5)"/><path class="cls-4" d="M44.5,221V405" transform="translate(4.5 111.5)"/><path class="cls-4" d="M1088.5,644V796" transform="translate(4.5 111.5)"/><path class="cls-4" d="M934.5,1057v62" transform="translate(4.5 111.5)"/><path class="cls-6" d="M1233,482V624.33a40.7,40.7,0,0,1-40.86,40.54,40.71,40.71,0,0,0-40.87,40.55v8.41a40.72,40.72,0,0,0,40.87,40.55A40.71,40.71,0,0,1,1233,794.93v9.31a50.06,50.06,0,0,1-50.25,49.87h-64.17M954,987h26.78A100.12,100.12,0,0,0,1081,886.94" transform="translate(4.5 111.5)"/><path class="cls-5" d="M1481,284.92V305.2a51.87,51.87,0,0,1-51.94,51.8h0a51.88,51.88,0,0,1-52-51.8V288.4a51.47,51.47,0,0,0-51.54-51.4h0A51.48,51.48,0,0,0,1274,288.4v20.68" transform="translate(4.5 111.5)"/><path class="cls-8" d="M1089,1181a73,73,0,0,1,73-73h0a73,73,0,0,1,73,73V1234a73,73,0,0,1-73,73h0a73,73,0,0,1-73-73Z" transform="translate(4.5 111.5)"/></g></g></g></g></g></g></g></svg>