<svg xmlns="http://www.w3.org/2000/svg" viewBox="0 0 71.02 64.21"><defs><style>.cls-1{fill:#e5e3e5;}</style></defs><g id="Layer_2" data-name="Layer 2"><g id="OBJECTS"><rect class="cls-1" x="14.4" y="42.25" width="10.99" height="3.76" transform="translate(-25.38 26.99) rotate(-45)"/><rect class="cls-1" x="-0.28" y="56.93" width="10.99" height="3.76" transform="translate(-40.06 20.91) rotate(-45)"/><rect class="cls-1" x="14.4" y="56.93" width="10.99" height="3.76" transform="translate(-7.62 114.46) rotate(-135)"/><rect class="cls-1" x="-0.27" y="42.25" width="10.99" height="3.76" transform="translate(-22.29 79.04) rotate(-135)"/><rect class="cls-1" x="60.3" y="42.43" width="10.99" height="3.76" transform="translate(-12.06 59.51) rotate(-45)"/><rect class="cls-1" x="45.62" y="57.11" width="10.99" height="3.76" transform="translate(-26.74 53.43) rotate(-45)"/><rect class="cls-1" x="60.3" y="57.11" width="10.99" height="3.76" transform="translate(70.62 147.22) rotate(-135)"/><rect class="cls-1" x="45.63" y="42.43" width="10.99" height="3.76" transform="translate(55.94 111.8) rotate(-135)"/><rect class="cls-1" x="14.4" y="3.34" width="10.99" height="3.76" transform="translate(2.14 15.6) rotate(-45)"/><rect class="cls-1" x="-0.28" y="18.02" width="10.99" height="3.76" transform="translate(-12.54 9.52) rotate(-45)"/><rect class="cls-1" x="14.4" y="18.01" width="10.99" height="3.76" transform="translate(19.9 48.02) rotate(-135)"/><rect class="cls-1" x="-0.27" y="3.34" width="10.99" height="3.76" transform="translate(5.23 12.6) rotate(-135)"/><rect class="cls-1" x="60.3" y="3.51" width="10.99" height="3.76" transform="translate(15.46 48.11) rotate(-45)"/><rect class="cls-1" x="45.62" y="18.19" width="10.99" height="3.76" transform="translate(0.78 42.03) rotate(-45)"/><rect class="cls-1" x="60.3" y="18.19" width="10.99" height="3.76" transform="translate(98.14 80.78) rotate(-135)"/><rect class="cls-1" x="45.63" y="3.51" width="10.99" height="3.76" transform="translate(83.46 45.36) rotate(-135)"/></g></g></svg>