<svg xmlns="http://www.w3.org/2000/svg" viewBox="0 0 165.76 144.51"><defs><style>.cls-1{fill:#000;opacity:0.1;}</style></defs><g id="Layer_2" data-name="Layer 2"><g id="OBJECTS"><rect class="cls-1" x="109.15" y="43.96" width="10.99" height="3.76" transform="translate(1.17 94.49) rotate(-45)"/><rect class="cls-1" x="94.47" y="58.64" width="10.99" height="3.76" transform="translate(-13.51 88.41) rotate(-45)"/><rect class="cls-1" x="109.15" y="58.63" width="10.99" height="3.76" transform="translate(152.92 184.37) rotate(-135)"/><rect class="cls-1" x="94.47" y="43.96" width="10.99" height="3.76" transform="translate(138.25 148.94) rotate(-135)"/><rect class="cls-1" x="155.05" y="44.14" width="10.99" height="3.76" transform="translate(14.49 127) rotate(-45)"/><rect class="cls-1" x="140.37" y="58.82" width="10.99" height="3.76" transform="translate(-0.19 120.92) rotate(-45)"/><rect class="cls-1" x="155.05" y="58.81" width="10.99" height="3.76" transform="translate(231.16 217.13) rotate(-135)"/><rect class="cls-1" x="140.38" y="44.14" width="10.99" height="3.76" transform="translate(216.48 181.7) rotate(-135)"/><rect class="cls-1" x="109.15" y="5.04" width="10.99" height="3.76" transform="translate(28.69 83.09) rotate(-45)"/><rect class="cls-1" x="94.47" y="19.72" width="10.99" height="3.76" transform="translate(14.01 77.01) rotate(-45)"/><rect class="cls-1" x="109.15" y="19.71" width="10.99" height="3.76" transform="translate(180.44 117.93) rotate(-135)"/><rect class="cls-1" x="94.47" y="5.04" width="10.99" height="3.76" transform="translate(165.77 82.5) rotate(-135)"/><rect class="cls-1" x="155.05" y="5.22" width="10.99" height="3.76" transform="translate(42.01 115.6) rotate(-45)"/><rect class="cls-1" x="140.37" y="19.9" width="10.99" height="3.76" transform="translate(27.33 109.52) rotate(-45)"/><rect class="cls-1" x="155.05" y="19.89" width="10.99" height="3.76" transform="translate(258.68 150.69) rotate(-135)"/><rect class="cls-1" x="140.38" y="5.22" width="10.99" height="3.76" transform="translate(244 115.26) rotate(-135)"/><rect class="cls-1" x="14.4" y="42.25" width="10.99" height="3.76" transform="translate(-25.38 26.99) rotate(-45)"/><rect class="cls-1" x="-0.28" y="56.93" width="10.99" height="3.76" transform="translate(-40.06 20.91) rotate(-45)"/><rect class="cls-1" x="14.4" y="56.93" width="10.99" height="3.76" transform="translate(-7.62 114.46) rotate(-135)"/><rect class="cls-1" x="-0.27" y="42.25" width="10.99" height="3.76" transform="translate(-22.29 79.04) rotate(-135)"/><rect class="cls-1" x="60.3" y="42.43" width="10.99" height="3.76" transform="translate(-12.06 59.51) rotate(-45)"/><rect class="cls-1" x="45.62" y="57.11" width="10.99" height="3.76" transform="translate(-26.74 53.43) rotate(-45)"/><rect class="cls-1" x="60.3" y="57.11" width="10.99" height="3.76" transform="translate(70.62 147.22) rotate(-135)"/><rect class="cls-1" x="45.63" y="42.43" width="10.99" height="3.76" transform="translate(55.94 111.8) rotate(-135)"/><rect class="cls-1" x="14.4" y="3.34" width="10.99" height="3.76" transform="translate(2.14 15.6) rotate(-45)"/><rect class="cls-1" x="-0.28" y="18.02" width="10.99" height="3.76" transform="translate(-12.54 9.52) rotate(-45)"/><rect class="cls-1" x="14.4" y="18.01" width="10.99" height="3.76" transform="translate(19.9 48.02) rotate(-135)"/><rect class="cls-1" x="-0.27" y="3.34" width="10.99" height="3.76" transform="translate(5.23 12.6) rotate(-135)"/><rect class="cls-1" x="60.3" y="3.51" width="10.99" height="3.76" transform="translate(15.46 48.11) rotate(-45)"/><rect class="cls-1" x="45.62" y="18.19" width="10.99" height="3.76" transform="translate(0.78 42.03) rotate(-45)"/><rect class="cls-1" x="60.3" y="18.19" width="10.99" height="3.76" transform="translate(98.14 80.78) rotate(-135)"/><rect class="cls-1" x="45.63" y="3.51" width="10.99" height="3.76" transform="translate(83.46 45.36) rotate(-135)"/><rect class="cls-1" x="109.15" y="122.55" width="10.99" height="3.76" transform="translate(-54.41 117.51) rotate(-45)"/><rect class="cls-1" x="94.47" y="137.23" width="10.99" height="3.76" transform="translate(-69.09 111.43) rotate(-45)"/><rect class="cls-1" x="109.15" y="137.23" width="10.99" height="3.76" transform="translate(97.35 318.53) rotate(-135)"/><rect class="cls-1" x="94.47" y="122.55" width="10.99" height="3.76" transform="translate(82.67 283.11) rotate(-135)"/><polyline class="cls-1" points="165.76 122.05 157.99 129.83 155.33 127.17 163.1 119.39"/><rect class="cls-1" x="140.37" y="137.41" width="10.99" height="3.76" transform="translate(-55.77 143.94) rotate(-45)"/><polyline class="cls-1" points="163.1 144.5 155.33 136.73 157.99 134.07 165.76 141.84"/><rect class="cls-1" x="140.38" y="122.73" width="10.99" height="3.76" transform="translate(160.91 315.87) rotate(-135)"/><rect class="cls-1" x="109.15" y="83.63" width="10.99" height="3.76" transform="translate(-26.89 106.11) rotate(-45)"/><rect class="cls-1" x="94.47" y="98.31" width="10.99" height="3.76" transform="translate(-41.57 100.03) rotate(-45)"/><rect class="cls-1" x="109.15" y="98.31" width="10.99" height="3.76" transform="translate(124.87 252.1) rotate(-135)"/><rect class="cls-1" x="94.47" y="83.63" width="10.99" height="3.76" transform="translate(110.19 216.67) rotate(-135)"/><polyline class="cls-1" points="165.76 83.13 157.99 90.91 155.33 88.25 163.1 80.48"/><rect class="cls-1" x="140.37" y="98.49" width="10.99" height="3.76" transform="translate(-28.25 132.54) rotate(-45)"/><polyline class="cls-1" points="163.1 105.58 155.33 97.81 157.99 95.15 165.76 102.92"/><rect class="cls-1" x="140.38" y="83.81" width="10.99" height="3.76" transform="translate(188.43 249.43) rotate(-135)"/><rect class="cls-1" x="14.4" y="120.85" width="10.99" height="3.76" transform="translate(-80.96 50.01) rotate(-45)"/><rect class="cls-1" x="-0.28" y="135.53" width="10.99" height="3.76" transform="translate(-95.64 43.93) rotate(-45)"/><rect class="cls-1" x="14.4" y="135.52" width="10.99" height="3.76" transform="translate(-63.2 248.63) rotate(-135)"/><rect class="cls-1" x="-0.27" y="120.85" width="10.99" height="3.76" transform="translate(-77.87 213.2) rotate(-135)"/><rect class="cls-1" x="60.3" y="121.03" width="10.99" height="3.76" transform="translate(-67.64 82.53) rotate(-45)"/><rect class="cls-1" x="45.62" y="135.71" width="10.99" height="3.76" transform="translate(-82.32 76.45) rotate(-45)"/><rect class="cls-1" x="60.3" y="135.7" width="10.99" height="3.76" transform="translate(15.04 281.39) rotate(-135)"/><rect class="cls-1" x="45.63" y="121.03" width="10.99" height="3.76" transform="translate(0.37 245.97) rotate(-135)"/><rect class="cls-1" x="14.4" y="81.93" width="10.99" height="3.76" transform="translate(-53.44 38.62) rotate(-45)"/><rect class="cls-1" x="-0.28" y="96.61" width="10.99" height="3.76" transform="translate(-68.12 32.53) rotate(-45)"/><rect class="cls-1" x="14.4" y="96.6" width="10.99" height="3.76" transform="translate(-35.67 182.19) rotate(-135)"/><rect class="cls-1" x="-0.27" y="81.93" width="10.99" height="3.76" transform="translate(-50.35 146.76) rotate(-135)"/><rect class="cls-1" x="60.3" y="82.11" width="10.99" height="3.76" transform="translate(-40.12 71.13) rotate(-45)"/><rect class="cls-1" x="45.62" y="96.79" width="10.99" height="3.76" transform="translate(-54.8 65.05) rotate(-45)"/><rect class="cls-1" x="60.3" y="96.78" width="10.99" height="3.76" transform="translate(42.56 214.95) rotate(-135)"/><rect class="cls-1" x="45.63" y="82.11" width="10.99" height="3.76" transform="translate(27.89 179.53) rotate(-135)"/></g></g></svg>