<?xml version="1.0" encoding="UTF-8" standalone="no"?>
<!DOCTYPE svg PUBLIC "-//W3C//DTD SVG 1.1//EN" "http://www.w3.org/Graphics/SVG/1.1/DTD/svg11.dtd">
<svg width="100%" height="100%" viewBox="0 0 1201 375" version="1.1" xmlns="http://www.w3.org/2000/svg" xmlns:xlink="http://www.w3.org/1999/xlink" xml:space="preserve" xmlns:serif="http://www.serif.com/" style="fill-rule:evenodd;clip-rule:evenodd;stroke-linejoin:round;stroke-miterlimit:2;">
    <g transform="matrix(1,0,0,1,2.6283,-1.45655)">
        <g transform="matrix(1,0,0,1,-2.59706,-211.289)">
            <path d="M632.427,306.842C632.427,320.337 621.556,331.209 608.06,331.209C594.564,331.209 583.693,320.337 583.693,306.842C583.693,293.346 594.189,282.474 608.06,282.474C621.931,282.849 632.427,293.721 632.427,306.842ZM531.959,355.951L531.959,361.949C531.959,361.949 520.337,346.954 495.595,346.954C454.733,346.954 422.868,378.069 422.868,421.181C422.868,463.918 454.358,495.408 495.595,495.408C520.712,495.408 531.959,480.037 531.959,480.037L531.959,486.41C531.959,489.41 534.208,491.659 537.207,491.659L567.573,491.659L567.573,350.703L537.207,350.703C534.208,350.703 531.959,353.327 531.959,355.951ZM531.959,446.298C526.336,454.545 515.089,461.668 501.593,461.668C477.601,461.668 459.231,446.673 459.231,421.181C459.231,395.689 477.601,380.694 501.593,380.694C514.714,380.694 526.71,388.191 531.959,396.064L531.959,446.298ZM590.066,350.703L626.054,350.703L626.054,491.659L590.066,491.659L590.066,350.703ZM1127.65,346.954C1102.9,346.954 1091.28,361.949 1091.28,361.949L1091.28,282.849L1055.3,282.849L1055.3,491.659L1085.66,491.659C1088.66,491.659 1090.91,489.035 1090.91,486.41L1090.91,480.037C1090.91,480.037 1102.53,495.408 1127.27,495.408C1168.13,495.408 1200,463.918 1200,421.181C1200,378.444 1168.13,346.954 1127.65,346.954ZM1121.65,461.293C1107.78,461.293 1096.91,454.171 1091.28,445.923L1091.28,395.689C1096.91,388.191 1108.9,380.319 1121.65,380.319C1145.64,380.319 1164.01,395.314 1164.01,420.806C1164.01,446.298 1145.64,461.293 1121.65,461.293ZM1036.55,408.06L1036.55,492.034L1000.56,492.034L1000.56,412.184C1000.56,388.941 993.065,379.569 972.821,379.569C961.949,379.569 950.703,385.192 943.58,393.44L943.58,491.659L907.591,491.659L907.591,350.703L936.082,350.703C939.082,350.703 941.331,353.327 941.331,355.951L941.331,361.949C951.828,351.078 965.698,346.954 979.569,346.954C995.314,346.954 1008.44,351.453 1018.93,360.45C1031.68,370.947 1036.55,384.442 1036.55,408.06ZM820.244,346.954C795.501,346.954 783.88,361.949 783.88,361.949L783.88,282.849L747.891,282.849L747.891,491.659L778.257,491.659C781.256,491.659 783.505,489.035 783.505,486.41L783.505,480.037C783.505,480.037 795.127,495.408 819.869,495.408C860.731,495.408 892.596,463.918 892.596,421.181C892.971,378.444 861.106,346.954 820.244,346.954ZM814.246,461.293C800.375,461.293 789.503,454.171 783.88,445.923L783.88,395.689C789.503,388.191 801.5,380.319 814.246,380.319C838.238,380.319 856.607,395.314 856.607,420.806C856.607,446.298 838.238,461.293 814.246,461.293ZM716.776,346.954C727.648,346.954 733.271,348.828 733.271,348.828L733.271,382.193C733.271,382.193 703.28,372.071 684.536,393.44L684.536,492.034L648.547,492.034L648.547,350.703L678.913,350.703C681.912,350.703 684.161,353.327 684.161,355.951L684.161,361.949C690.909,354.077 705.53,346.954 716.776,346.954ZM343.018,478.913C341.143,474.414 339.269,469.541 337.395,465.417C334.396,458.669 331.396,452.296 328.772,446.298L328.397,445.923C302.53,389.691 274.789,332.709 245.548,276.476L244.424,274.227C241.425,268.604 238.425,262.605 235.426,256.607C231.678,249.859 227.929,242.737 221.931,235.989C209.934,220.993 192.69,212.746 174.321,212.746C155.576,212.746 138.707,220.993 126.336,235.239C120.712,241.987 116.589,249.11 112.84,255.858C109.841,261.856 106.842,267.854 103.843,273.477L102.718,275.726C73.852,331.959 45.736,388.941 19.869,445.173L19.494,445.923C16.87,451.921 13.871,458.294 10.872,465.042C8.997,469.166 7.123,473.664 5.248,478.538C0.375,492.409 -1.125,505.53 0.75,519.025C4.873,547.142 23.618,570.759 49.485,581.256C59.231,585.38 69.353,587.254 79.85,587.254C82.849,587.254 86.598,586.879 89.597,586.504C101.968,585.005 114.714,580.881 127.085,573.758C142.455,565.136 157.076,552.765 173.571,534.77C190.066,552.765 205.061,565.136 220.056,573.758C232.427,580.881 245.173,585.005 257.545,586.504C260.544,586.879 264.292,587.254 267.291,587.254C277.788,587.254 288.285,585.38 297.657,581.256C323.899,570.759 342.268,546.767 346.392,519.025C349.391,505.904 347.891,492.784 343.018,478.913ZM173.946,498.407C153.702,472.915 140.581,448.922 136.082,428.679C134.208,420.056 133.833,412.559 134.958,405.811C135.708,399.813 137.957,394.564 140.956,390.066C148.079,379.944 160.075,373.571 173.946,373.571C187.816,373.571 200.187,379.569 206.935,390.066C209.934,394.564 212.184,399.813 212.933,405.811C214.058,412.559 213.683,420.431 211.809,428.679C207.31,448.547 194.189,472.54 173.946,498.407ZM323.524,516.026C320.9,535.52 307.779,552.39 289.41,559.888C280.412,563.636 270.665,564.761 260.918,563.636C251.546,562.512 242.174,559.513 232.427,553.889C218.932,546.392 205.436,534.77 189.691,517.526C214.433,487.16 229.428,459.419 235.052,434.677C237.676,423.055 238.051,412.559 236.926,402.812C235.426,393.44 232.052,384.817 226.804,377.32C215.183,360.45 195.689,350.703 173.946,350.703C152.202,350.703 132.709,360.825 121.087,377.32C115.839,384.817 112.465,393.44 110.965,402.812C109.466,412.559 109.841,423.43 112.84,434.677C118.463,459.419 133.833,487.535 158.201,517.901C142.83,535.145 128.96,546.767 115.464,554.264C105.717,559.888 96.345,562.887 86.973,564.011C76.851,565.136 67.104,563.636 58.482,560.262C40.112,552.765 26.992,535.895 24.367,516.401C23.243,507.029 23.993,497.657 27.741,487.16C28.866,483.411 30.74,479.663 32.615,475.164C35.239,469.166 38.238,462.793 41.237,456.42L41.612,455.67C67.479,399.813 95.22,342.83 124.086,287.348L125.211,285.098C128.21,279.475 131.209,273.477 134.208,267.854C137.207,261.856 140.581,256.232 144.705,251.359C152.577,242.362 163.074,237.488 174.695,237.488C186.317,237.488 196.813,242.362 204.686,251.359C208.81,256.232 212.184,261.856 215.183,267.854C218.182,273.477 221.181,279.475 224.18,285.098L225.305,287.348C253.796,343.205 281.537,400.187 307.404,456.045L307.404,456.42C310.403,462.418 313.027,469.166 316.026,475.164C317.901,479.663 319.775,483.411 320.9,487.16C323.899,496.907 325.023,506.279 323.524,516.026Z" style="fill:rgb(142,142,142);fill-rule:nonzero;"/>
        </g>
    </g>
</svg>
