<svg clip-rule="evenodd" fill-rule="evenodd" viewBox="0 0 560 400" xmlns="http://www.w3.org/2000/svg"><path d="m289.732 172.053c0 4.049-3.261 7.31-7.31 7.31s-7.31-3.261-7.31-7.31 3.149-7.31 7.31-7.31c4.161.112 7.31 3.374 7.31 7.31zm-30.14 14.733v1.799s-3.486-4.498-10.909-4.498c-12.258 0-21.818 9.334-21.818 22.267 0 12.821 9.447 22.267 21.818 22.267 7.535 0 10.909-4.611 10.909-4.611v1.912c0 .9.675 1.574 1.574 1.574h9.109v-42.286h-9.109c-.9 0-1.574.787-1.574 1.574zm0 27.103c-1.687 2.474-5.061 4.611-9.109 4.611-7.198 0-12.708-4.498-12.708-12.146 0-7.647 5.511-12.146 12.708-12.146 3.936 0 7.535 2.249 9.109 4.611zm17.432-28.678h10.796v42.286h-10.796zm161.271-1.125c-7.422 0-10.909 4.498-10.909 4.498v-23.729h-10.796v62.641h9.109c.9 0 1.574-.787 1.574-1.574v-1.912s3.486 4.611 10.909 4.611c12.258 0 21.818-9.447 21.818-22.267 0-12.821-9.559-22.267-21.705-22.267zm-1.799 34.301c-4.161 0-7.422-2.137-9.109-4.611v-15.07c1.687-2.249 5.286-4.611 9.109-4.611 7.198 0 12.708 4.498 12.708 12.146 0 7.647-5.511 12.146-12.708 12.146zm-25.529-15.97v25.191h-10.796v-23.954c0-6.973-2.249-9.784-8.322-9.784-3.261 0-6.635 1.687-8.772 4.161v29.465h-10.796v-42.286h8.547c.9 0 1.574.787 1.574 1.574v1.799c3.149-3.261 7.31-4.498 11.471-4.498 4.723 0 8.66 1.35 11.809 4.049 3.824 3.149 5.286 7.198 5.286 14.283zm-64.891-18.331c-7.422 0-10.909 4.498-10.909 4.498v-23.729h-10.796v62.641h9.109c.9 0 1.574-.787 1.574-1.574v-1.912s3.486 4.611 10.909 4.611c12.258 0 21.818-9.447 21.818-22.267.112-12.821-9.447-22.267-21.705-22.267zm-1.799 34.301c-4.161 0-7.422-2.137-9.109-4.611v-15.07c1.687-2.249 5.286-4.611 9.109-4.611 7.198 0 12.708 4.498 12.708 12.146 0 7.647-5.511 12.146-12.708 12.146zm-29.24-34.301c3.261 0 4.948.562 4.948.562v10.009s-8.997-3.036-14.62 3.374v29.578h-10.796v-42.398h9.109c.9 0 1.574.787 1.574 1.574v1.799c2.024-2.362 6.41-4.498 9.784-4.498zm-112.125 39.587c-.562-1.35-1.125-2.812-1.687-4.049-.9-2.024-1.799-3.936-2.587-5.736l-.112-.112c-7.76-16.869-16.082-33.964-24.854-50.833l-.337-.675c-.9-1.687-1.799-3.486-2.699-5.286-1.125-2.024-2.249-4.161-4.049-6.185-3.599-4.498-8.772-6.973-14.283-6.973-5.623 0-10.684 2.474-14.395 6.748-1.687 2.024-2.924 4.161-4.049 6.185-.9 1.799-1.799 3.599-2.699 5.286l-.337.675c-8.66 16.869-17.094 33.964-24.854 50.833l-.112.225c-.787 1.799-1.687 3.711-2.587 5.736-.562 1.237-1.125 2.587-1.687 4.049-1.462 4.161-1.912 8.097-1.35 12.146 1.237 8.435 6.86 15.52 14.62 18.669 2.924 1.237 5.96 1.799 9.109 1.799.9 0 2.024-.112 2.924-.225 3.711-.45 7.535-1.687 11.246-3.824 4.611-2.587 8.997-6.298 13.945-11.696 4.948 5.398 9.447 9.109 13.945 11.696 3.711 2.137 7.535 3.374 11.246 3.824.9.112 2.024.225 2.924.225 3.149 0 6.298-.562 9.109-1.799 7.872-3.149 13.383-10.347 14.62-18.669.9-3.936.45-7.872-1.012-12.033zm-50.72 5.848c-6.073-7.647-10.009-14.845-11.359-20.918-.562-2.587-.675-4.836-.337-6.86.225-1.799.9-3.374 1.799-4.723 2.137-3.036 5.736-4.948 9.897-4.948s7.872 1.799 9.897 4.948c.9 1.35 1.574 2.924 1.799 4.723.337 2.024.225 4.386-.337 6.86-1.35 5.96-5.286 13.158-11.359 20.918zm44.872 5.286c-.787 5.848-4.723 10.909-10.234 13.158-2.699 1.125-5.623 1.462-8.547 1.125-2.812-.337-5.623-1.237-8.547-2.924-4.049-2.249-8.097-5.736-12.821-10.909 7.422-9.109 11.921-17.432 13.608-24.854.787-3.486.9-6.635.562-9.559-.45-2.812-1.462-5.398-3.036-7.647-3.486-5.061-9.334-7.985-15.857-7.985s-12.371 3.036-15.857 7.985c-1.574 2.249-2.587 4.836-3.036 7.647-.45 2.924-.337 6.185.562 9.559 1.687 7.422 6.298 15.857 13.608 24.967-4.611 5.173-8.772 8.66-12.821 10.909-2.924 1.687-5.736 2.587-8.547 2.924-3.036.337-5.96-.112-8.547-1.125-5.511-2.249-9.447-7.31-10.234-13.158-.337-2.812-.112-5.623 1.012-8.772.337-1.125.9-2.249 1.462-3.599.787-1.799 1.687-3.711 2.587-5.623l.112-.225c7.76-16.757 16.082-33.851 24.742-50.495l.337-.675 2.699-5.173c.9-1.799 1.912-3.486 3.149-4.948 2.362-2.699 5.511-4.161 8.997-4.161s6.635 1.462 8.997 4.161c1.237 1.462 2.249 3.149 3.149 4.948l2.699 5.173.337.675c8.547 16.757 16.869 33.851 24.629 50.608v.112l2.587 5.623c.562 1.35 1.125 2.474 1.462 3.599.9 2.924 1.237 5.736.787 8.66z" fill="#8E8E8E"/></svg>