<?xml version="1.0" encoding="UTF-8" standalone="no"?>
<svg
   xmlns:dc="http://purl.org/dc/elements/1.1/"
   xmlns:cc="http://creativecommons.org/ns#"
   xmlns:rdf="http://www.w3.org/1999/02/22-rdf-syntax-ns#"
   xmlns:svg="http://www.w3.org/2000/svg"
   xmlns="http://www.w3.org/2000/svg"
   xmlns:sodipodi="http://sodipodi.sourceforge.net/DTD/sodipodi-0.dtd"
   xmlns:inkscape="http://www.inkscape.org/namespaces/inkscape"
   width="300"
   height="50"
   viewBox="0 0 26.458333 8.9958325"
   version="1.1"
   id="svg8"
   inkscape:version="1.0.2-2 (e86c870879, 2021-01-15)"
   sodipodi:docname="Xinhuanet_logo.svg">
  <title
     id="title16">Alsumaria logo</title>
  <defs
     id="defs2" />
  <sodipodi:namedview
     id="base"
     pagecolor="#ffffff"
     bordercolor="#666666"
     borderopacity="1.0"
     inkscape:pageopacity="0.0"
     inkscape:pageshadow="2"
     inkscape:zoom="8"
     inkscape:cx="21.253766"
     inkscape:cy="13.474008"
     inkscape:document-units="px"
     inkscape:current-layer="layer1"
     inkscape:document-rotation="0"
     showgrid="false"
     units="px"
     inkscape:showpageshadow="false"
     inkscape:window-width="1366"
     inkscape:window-height="745"
     inkscape:window-x="-8"
     inkscape:window-y="-8"
     inkscape:window-maximized="1" />
  <metadata
     id="metadata5">
    <rdf:RDF>
      <cc:Work
         rdf:about="">
        <dc:format>image/svg+xml</dc:format>
        <dc:type
           rdf:resource="http://purl.org/dc/dcmitype/StillImage" />
        <dc:title>Alsumaria logo</dc:title>
        <cc:license
           rdf:resource="http://scripts.sil.org/OFL" />
        <dc:date>20 feb 2021</dc:date>
      </cc:Work>
      <cc:License
         rdf:about="http://scripts.sil.org/OFL">
        <cc:permits
           rdf:resource="http://scripts.sil.org/pub/OFL/Reproduction" />
        <cc:permits
           rdf:resource="http://scripts.sil.org/pub/OFL/Distribution" />
        <cc:permits
           rdf:resource="http://scripts.sil.org/pub/OFL/Embedding" />
        <cc:permits
           rdf:resource="http://scripts.sil.org/pub/OFL/DerivativeWorks" />
        <cc:requires
           rdf:resource="http://scripts.sil.org/pub/OFL/Notice" />
        <cc:requires
           rdf:resource="http://scripts.sil.org/pub/OFL/Attribution" />
        <cc:requires
           rdf:resource="http://scripts.sil.org/pub/OFL/ShareAlike" />
        <cc:requires
           rdf:resource="http://scripts.sil.org/pub/OFL/DerivativeRenaming" />
        <cc:requires
           rdf:resource="http://scripts.sil.org/pub/OFL/BundlingWhenSelling" />
      </cc:License>
    </rdf:RDF>
  </metadata>
  <g
     inkscape:label="Capa 1"
     inkscape:groupmode="layer"
     id="layer1">
    <g
       id="g405"
       transform="matrix(0.1149684,0,0,0.1149684,105.57837,-92.779926)"
       style="stroke-width:3.06848">
      <circle
         style="fill:#e90029;fill-opacity:0.996078;stroke-width:2.30136"
         id="path116"
         cx="-726.81073"
         cy="846.10785"
         r="37.892319" />
      <path
         id="rect112-8"
         style="fill:#ffffff;stroke-width:2.30136"
         d="m -739.24607,831.8738 c -1.36867,0.0687 -2.41344,1.19948 -2.95111,2.39368 -2.89475,6.77992 -3.133,16.49454 0,23.05508 0.57352,1.27381 1.72401,2.47514 3.22914,2.39274 l 24.41754,-0.007 c 1.30547,0.0444 2.33544,-0.94733 2.91212,-2.02467 3.2012,-6.75892 3.39823,-17.47043 0,-23.77885 -0.57668,-1.07733 -1.60665,-2.06903 -2.91212,-2.02466 l -24.41754,-0.006 c -0.094,-0.005 -0.18677,-0.006 -0.27803,-9.5e-4 z m 4.96233,5.98023 c 0.12434,-0.003 0.24875,1.7e-4 0.3727,0.009 l 14.60106,0.0223 c 1.03299,-0.0285 2.06586,0.48468 2.57283,1.40361 1.62907,3.26332 1.53753,10.40746 0,13.0113 -0.50697,0.91891 -1.53984,1.43213 -2.57283,1.40361 l -14.60106,0.0223 c -0.99181,0.0729 -2.02477,-0.22485 -2.63315,-1.05503 -2.22268,-3.39397 -2.00074,-11.12897 0,-13.75303 0.53234,-0.72641 1.38996,-1.0448 2.26045,-1.06432 z"
         sodipodi:nodetypes="sccccccccssccccccccssc" />
      <g
         id="#010101ff"
         transform="matrix(0.45109314,0,0,0.4536219,-957.2286,523.46735)"
         style="fill:#fff;stroke-width:6.78332">
        <path
           id="path22"
           style="fill:#fff;stroke-width:6.78332"
           d="m 111.40178,671.685 a 5.8413658,5.8413658 0 0 0 -5.81836,5.84183 5.8413658,5.8413658 0 0 0 5.8418,5.84175 5.8413658,5.8413658 0 0 0 5.84179,-5.84175 5.8413658,5.8413658 0 0 0 -5.84179,-5.84183 5.8413658,5.8413658 0 0 0 -0.0234,0 z m -13.437005,0.1011 a 5.8413658,5.8413658 0 0 0 -5.81836,5.84033 5.8413658,5.8413658 0 0 0 5.8418,5.84182 5.8413658,5.8413658 0 0 0 5.840325,-5.84182 5.8413658,5.8413658 0 0 0 -5.840325,-5.84033 5.8413658,5.8413658 0 0 0 -0.0234,0 z m 297.437975,1.72703 -12.01025,0.0202 0.0893,61.55857 11.69971,-6.42922 z m -34.16016,0.0292 c -0.37,13.91002 0.36895,27.87975 -0.33105,41.75977 -3.05,4.11 -8.99887,1.77998 -13.33887,2.25 l -0.0308,-28.04887 -11.40967,0.0187 -0.26953,28.22025 -8.9209,-0.0105 -0.36035,-28.20998 -11.40967,0.0105 -0.19043,28.22025 h -9.36914 l -0.16992,-28.2096 -11.21045,-0.0103 c 0,0 0.0798,18.68977 -0.0102,28.02975 l -25.1499,-0.0791 -0.20947,-27.91995 c -6.87,0.26002 -13.77061,-0.34013 -20.62061,0.33982 -7.18,1.03005 -11.99912,8.22923 -11.84912,15.19928 -0.04,6.58995 -1.01977,14.31997 3.99024,19.5 4.36999,4.71 11.23994,4.77105 17.18994,4.83105 -0.42,3.31995 -1.88079,6.79957 -5.05078,8.3496 -3.92001,1.86 -8.37034,2.16915 -12.59034,2.90917 l 6.60059,8.8608 c 1.19,1.45005 3.05961,0.57023 4.59961,0.41018 4.84,-0.84998 10.04982,-2.20988 13.31982,-6.16988 3.63,-3.88005 4.3308,-9.3612 4.8208,-14.41117 l 80.55908,0.0105 c 5.29,-0.0697 11.06051,0.40095 15.7705,-2.499 4.68002,-2.78003 6.7506,-8.45048 6.6006,-13.6905 -0.02,-13.20998 0.009,-26.41988 -0.041,-39.62985 z m -149.94286,15.3194 c -7.02765,-0.0812 -14.12027,3.56737 -15.8584,10.7505 -0.81,5.91997 -0.15881,11.9301 -0.52881,17.89012 -4.47,0.1 -8.93014,0.16005 -13.39014,0.06 -0.10999,-9.33997 -0.0205,-18.66922 -0.0806,-28.00927 -3.77001,0.0503 -7.54006,0.0495 -11.31006,-0.0308 -0.1,13.57005 0.20989,27.1407 -0.12011,40.7007 -0.06,5.58997 -5.73016,8.13015 -10.16016,9.87015 2.67,3.54 5.29111,7.12995 7.89111,10.72995 4.21001,-2.94 9.08926,-5.45055 11.73926,-10.06058 1.98,-3.42 1.9797,-7.48005 1.9497,-11.31 4.66,-0.19005 9.32047,-0.16035 13.98047,-0.0705 1.47,2.49998 2.99941,5.11133 5.39941,6.8613 6.98001,4.9701 17.88012,4.1001 23.37012,-2.7099 4.16,-5.57002 2.91108,-12.90135 3.10108,-19.38135 -0.23,-6.09 0.95,-12.7188 -2.25,-18.2388 -2.83938,-4.66815 -8.26697,-6.98865 -13.73291,-7.05172 z m -90.30762,0.68115 c -6.63,0.28995 -13.27965,-0.29025 -19.88965,0.27975 -6.999985,0.91005 -12.26999,7.37002 -12.74999,14.25 -0.27,6.70005 -0.911018,14.32957 3.708985,19.82962 2.92,3.76995 7.70029,5.20088 12.300285,5.17088 1.62,-2.09003 3.21061,-4.19025 4.8706,-6.24023 0.19001,2.13998 0.32977,4.28063 0.50977,6.43065 7.36,0.17003 14.71985,0.069 22.08985,0.069 4.15999,-0.12997 8.58015,0.10118 12.41015,-1.7988 4.69,-2.24002 7.51928,-7.28085 7.75928,-12.38085 0.35,-8.49 0.0211,-16.98975 0.10107,-25.4898 -3.87999,-0.0697 -7.76085,-0.0593 -11.63085,0.0203 -0.14001,7.83998 0.0302,15.66923 -0.0498,23.50928 -0.06,1.57995 -0.0103,3.98017 -2.09034,4.22017 -5.69,0.68003 -11.43892,0.0292 -17.14892,0.31935 -0.07,-9.39997 0.18957,-18.79942 -0.19043,-28.18942 z m 90.6123,10.84567 c 1.34471,0.0345 2.62032,0.39285 3.45704,1.5249 0.94,3.32003 0.45103,6.83925 0.56103,10.2393 -0.16,4.50998 0.37939,9.06953 -0.37061,13.53953 -1.22,2.88997 -5.18941,2.21062 -7.64941,1.64062 -2.24,-3.99997 -0.97053,-8.82067 -1.29053,-13.18065 0.33,-4.38 -0.96953,-9.2193 1.23047,-13.2393 l 0.78955,-0.2007 c 0.825,-0.13125 1.76209,-0.28575 2.69239,-0.31927 0.19381,-0.007 0.38797,-0.009 0.58007,-0.007 z m -105.68261,0.47753 c 1.23709,0.0195 2.49058,0.14167 3.60058,0.0967 -0.01,5.63003 -0.0107,11.2506 -0.0307,16.87065 -2.61,-0.14002 -5.26984,0.0203 -7.83984,-0.56985 -1.40001,-0.86002 -1.23989,-2.66077 -1.37988,-4.07077 -0.08,-3.44003 -0.25016,-6.9096 0.33984,-10.30958 1.23125,-1.79377 3.24824,-2.04907 5.31006,-2.01712 z m 149.16943,0.0465 c 0.77922,-0.012 1.56082,0.0158 2.34082,0.0806 -0.07,5.61015 -0.0702,11.21962 -0.0102,16.82962 -2.84,-0.48997 -6.57977,0.7998 -8.75977,-1.4502 -1,-4.65 -0.23945,-9.48045 -0.43945,-14.21047 2.2125,-0.8175 4.53099,-1.21245 6.86865,-1.2495 z m -108.90527,37.752 a 5.8413658,5.8413658 0 0 0 -5.81836,5.84032 5.8413658,5.8413658 0 0 0 5.8418,5.84175 5.8413658,5.8413658 0 0 0 5.84179,-5.84175 5.8413658,5.8413658 0 0 0 -5.84179,-5.84032 5.8413658,5.8413658 0 0 0 -0.0234,0 z m -13.2876,0.054 a 5.8413658,5.8413658 0 0 0 -5.81836,5.84182 5.8413658,5.8413658 0 0 0 5.8418,5.84183 5.8413658,5.8413658 0 0 0 5.84179,-5.84183 5.8413658,5.8413658 0 0 0 -5.84179,-5.84182 5.8413658,5.8413658 0 0 0 -0.0234,0 z" />
      </g>
    </g>
  </g>
</svg>
