<?xml version="1.0" encoding="UTF-8" standalone="no"?>
<!-- Created with Inkscape (http://www.inkscape.org/) -->

<svg
   xmlns:dc="http://purl.org/dc/elements/1.1/"
   xmlns:cc="http://creativecommons.org/ns#"
   xmlns:rdf="http://www.w3.org/1999/02/22-rdf-syntax-ns#"
   xmlns:svg="http://www.w3.org/2000/svg"
   xmlns="http://www.w3.org/2000/svg"
   xmlns:sodipodi="http://sodipodi.sourceforge.net/DTD/sodipodi-0.dtd"
   xmlns:inkscape="http://www.inkscape.org/namespaces/inkscape"
   width="421.35025"
   height="87.908127"
   viewBox="0 0 111.48225 23.259024"
   version="1.1"
   id="svg254"
   inkscape:version="0.92.0 r15299"
   sodipodi:docname="careem.svg">
  <defs
     id="defs248">
    <clipPath
       id="clipPath274"
       clipPathUnits="userSpaceOnUse">
      <path
         inkscape:connector-curvature="0"
         id="path272"
         d="M 0,196.667 H 434.668 V 0 H 0 Z" />
    </clipPath>
  </defs>
  <sodipodi:namedview
     id="base"
     pagecolor="#ffffff"
     bordercolor="#666666"
     borderopacity="1.0"
     inkscape:pageopacity="0.0"
     inkscape:pageshadow="2"
     inkscape:zoom="1.3838148"
     inkscape:cx="209.86146"
     inkscape:cy="43.052266"
     inkscape:document-units="mm"
     inkscape:current-layer="layer1"
     showgrid="false"
     fit-margin-top="0"
     fit-margin-left="0"
     fit-margin-right="0"
     fit-margin-bottom="0"
     units="px"
     inkscape:window-width="1280"
     inkscape:window-height="744"
     inkscape:window-x="-4"
     inkscape:window-y="-4"
     inkscape:window-maximized="1" />
  <metadata
     id="metadata251">
    <rdf:RDF>
      <cc:Work
         rdf:about="">
        <dc:format>image/svg+xml</dc:format>
        <dc:type
           rdf:resource="http://purl.org/dc/dcmitype/StillImage" />
        <dc:title></dc:title>
      </cc:Work>
    </rdf:RDF>
  </metadata>
  <g
     inkscape:label="Layer 1"
     inkscape:groupmode="layer"
     id="layer1"
     transform="translate(78.960371,-136.96523)">
    <g
       id="g268"
       transform="matrix(0.35277777,0,0,-0.35277777,-99.840547,183.25863)">
      <g
         id="g270"
         clip-path="url(#clipPath274)">
        <g
           id="g276"
           transform="translate(310.1016,67.3643)">
          <path
             d="m 0,0 v 42.869 h 9.771 v -5.457 c 2.465,4.401 7.834,6.69 12.676,6.69 5.634,0 10.564,-2.553 12.852,-7.571 3.346,5.635 8.363,7.571 13.909,7.571 7.746,0 15.141,-4.93 15.141,-16.286 V 0 h -9.86 v 26.145 c 0,5.017 -2.552,8.802 -8.274,8.802 -5.37,0 -8.891,-4.226 -8.891,-9.508 V 0 H 27.289 v 26.145 c 0,4.929 -2.465,8.802 -8.275,8.802 -5.457,0 -8.891,-4.049 -8.891,-9.508 L 10.123,0 Z m -20.073,26.145 c -0.176,5.017 -3.521,9.505 -10.564,9.505 -6.426,0 -10.123,-4.929 -10.474,-9.505 z m 9.771,-13.909 C -12.591,4.754 -19.369,-1.32 -29.668,-1.32 c -11.62,0 -21.919,8.449 -21.919,22.974 0,13.557 10.035,22.535 20.862,22.535 13.204,0 20.952,-8.714 20.952,-22.271 0,-1.672 -0.177,-3.08 -0.265,-3.256 h -31.338 c 0.265,-6.516 5.37,-11.18 11.708,-11.18 6.162,0 9.331,3.256 10.739,7.483 z m -58.013,13.909 c -0.176,5.017 -3.521,9.505 -10.564,9.505 -6.426,0 -10.123,-4.929 -10.475,-9.505 z m 9.771,-13.909 C -60.833,4.754 -67.611,-1.32 -77.91,-1.32 c -11.62,0 -21.919,8.449 -21.919,22.974 0,13.557 10.035,22.535 20.862,22.535 13.204,0 20.951,-8.714 20.951,-22.271 0,-1.672 -0.175,-3.08 -0.264,-3.256 h -31.338 c 0.264,-6.516 5.37,-11.18 11.708,-11.18 6.162,0 9.331,3.256 10.739,7.483 z m -46.04,20.51 c -1.145,0.176 -2.289,0.264 -3.346,0.264 -7.922,0 -11.531,-4.576 -11.531,-12.588 V 0 h -10.212 v 42.869 h 9.947 v -6.865 c 2.025,4.664 6.779,7.394 12.413,7.394 1.232,0 2.288,-0.177 2.729,-0.265 z M -163.918,7.658 c 6.69,0 11.356,5.721 11.356,13.996 0,8.276 -4.578,13.557 -11.356,13.557 -6.866,0 -11.619,-5.281 -11.619,-13.557 0,-8.185 4.488,-13.996 11.619,-13.996 m -1.144,-8.803 c -12.588,0 -20.687,9.948 -20.687,22.799 0,12.412 8.187,22.448 20.511,22.448 7.57,0 11.443,-3.961 12.588,-6.866 v 5.633 h 9.947 V 7.834 c 0,-3.522 0.351,-6.955 0.439,-7.834 h -9.77 c -0.176,0.969 -0.441,3.256 -0.441,6.162 -1.936,-4.139 -6.425,-7.307 -12.587,-7.307"
             style="fill:#8E8E8E;fill-opacity:1;fill-rule:nonzero;stroke:none"
             id="path278"
             inkscape:connector-curvature="0" />
        </g>
        <g
           id="g280"
           transform="translate(75.6543,127.79)">
          <path
             d="m 0,0 c 3.697,0 6.691,-2.994 6.691,-6.691 0,-3.698 -2.994,-6.602 -6.691,-6.602 -3.609,0 -6.602,2.904 -6.602,6.602 C -6.602,-2.994 -3.609,0 0,0"
             style="fill:#8E8E8E;fill-opacity:1;fill-rule:nonzero;stroke:none"
             id="path282"
             inkscape:connector-curvature="0" />
        </g>
        <g
           id="g284"
           transform="translate(91.1309,76.1729)">
          <path
             d="M 0,0 C -9.353,0 -18.228,5.973 -20.256,17.32 H -31.193 C -28.974,0.037 -15.373,-10.125 0,-10.125 15.934,-10.125 25.44,0 28.258,10.564 l -9.684,3.17 C 16.461,6.691 10.476,0 0,0"
             style="fill:#8E8E8E;fill-opacity:1;fill-rule:nonzero;stroke:none"
             id="path286"
             inkscape:connector-curvature="0" />
        </g>
        <g
           id="g288"
           transform="translate(116.9551,116.5654)">
          <path
             d="M 0,0 C -3.464,6.727 -9.847,12.129 -19.1,13.91 L -21.426,4.178 C -15.021,2.939 -10.9,-0.982 -8.798,-5.973 Z"
             style="fill:#8E8E8E;fill-opacity:1;fill-rule:nonzero;stroke:none"
             id="path290"
             inkscape:connector-curvature="0" />
        </g>
      </g>
    </g>
  </g>
</svg>
